<svg width="225" height="225" viewBox="0 0 225 225" fill="none" xmlns="http://www.w3.org/2000/svg">
<g style="mix-blend-mode:multiply">
<path d="M201.37 156.57C193.099 173.983 179.85 188.553 163.298 198.437C146.747 208.32 127.636 213.073 108.383 212.096C89.1297 211.118 70.5989 204.453 55.1338 192.943C39.6688 181.433 27.9641 165.596 21.4999 147.434C15.0357 129.272 14.1023 109.602 18.8178 90.9093C23.5334 72.2169 33.6859 55.3427 47.9917 42.4205C62.2975 29.4983 80.1139 21.1085 99.188 18.312C118.262 15.5156 137.737 18.4381 155.15 26.71C166.712 32.2011 177.08 39.916 185.66 49.4141C194.24 58.9122 200.866 70.0076 205.158 82.0664C209.45 94.1253 211.324 106.912 210.675 119.695C210.025 132.478 206.863 145.009 201.37 156.57V156.57Z" fill="#3B2C21"/>
</g>
<path d="M191.372 146.211C209.887 102.802 189.707 52.6026 146.298 34.0871C102.889 15.5717 52.6898 35.7518 34.1743 79.1607C15.6589 122.57 35.839 172.769 79.2479 191.285C122.657 209.8 172.856 189.62 191.372 146.211Z" fill="url(#paint0_linear_2_22)"/>
<g style="mix-blend-mode:multiply" opacity="0.02">
<path d="M75.0901 185.55C34.0001 166 16.7601 116.47 36.5401 74.83C56.3201 33.19 105.65 15.24 146.72 34.75C187.79 54.26 205.05 103.83 185.27 145.48C165.49 187.13 116.16 205.06 75.0901 185.55ZM151.49 24.7C105 2.58996 49.0001 22.92 26.6201 70.12C4.24007 117.32 23.7701 173.49 70.3101 195.6C116.85 217.71 172.77 197.38 195.18 150.19C217.59 103 198 46.81 151.49 24.7Z" fill="#FBFAF9"/>
</g>
<g style="mix-blend-mode:multiply" opacity="0.05">
<path d="M75.12 185.64C34 166.12 16.74 116.52 36.53 74.87C56.32 33.22 105.68 15.26 146.78 34.79C187.88 54.32 205.16 103.91 185.37 145.57C165.58 187.23 116.22 205.17 75.12 185.64ZM151.56 24.73C105 2.59998 49 22.94 26.61 70.15C4.22005 117.36 23.76 173.57 70.34 195.7C116.92 217.83 172.87 197.49 195.34 150.28C217.81 103.07 198.14 46.86 151.56 24.73Z" fill="#F7F6F3"/>
</g>
<g style="mix-blend-mode:multiply" opacity="0.07">
<path d="M75.15 185.74C34 166.2 16.73 116.58 36.52 74.9C56.31 33.22 105.71 15.28 146.84 34.82C187.97 54.36 205.27 104 185.47 145.66C165.67 187.32 116.29 205.28 75.15 185.74ZM151.62 24.74C105 2.61997 49 23 26.59 70.19C4.18004 117.38 23.76 173.65 70.38 195.8C117 217.95 172.97 197.6 195.38 150.37C217.79 103.14 198.24 46.9 151.62 24.76V24.74Z" fill="#F3F1ED"/>
</g>
<g style="mix-blend-mode:multiply" opacity="0.1">
<path d="M75.19 185.83C34 166.28 16.71 116.63 36.51 74.9399C56.31 33.2499 105.74 15.2999 146.9 34.8599C188.06 54.4199 205.38 104.05 185.58 145.75C165.78 187.45 116.35 205.38 75.19 185.83ZM151.68 24.8299C105 2.62994 49 22.9999 26.57 70.2199C4.14001 117.44 23.76 173.73 70.41 195.89C117.06 218.05 173.07 197.71 195.51 150.47C217.95 103.23 198.33 46.9999 151.68 24.7899V24.8299Z" fill="#EFEDE7"/>
</g>
<g style="mix-blend-mode:multiply" opacity="0.12">
<path d="M75.2201 185.92C34.0001 166.36 16.6901 116.68 36.5001 75C56.3101 33.32 105.77 15.32 147 34.89C188.23 54.46 205.53 104.13 185.72 145.89C165.91 187.65 116.41 205.49 75.2201 185.92ZM151.75 24.82C105.06 2.63996 49.0001 23 26.5601 70.25C4.12006 117.5 23.7501 173.81 70.4401 196C117.13 218.19 173.17 197.84 195.62 150.57C218.07 103.3 198.43 47 151.75 24.82V24.82Z" fill="#EBE8E2"/>
</g>
<g style="mix-blend-mode:multiply" opacity="0.15">
<path d="M75.25 186C34 166.43 16.68 116.74 36.5 74.9999C56.32 33.2599 105.8 15.3399 147 34.9199C188.2 54.4999 205.58 104.2 185.76 145.92C165.94 187.64 116.48 205.6 75.25 186ZM151.81 24.8499C105.09 2.65995 49 22.9999 26.54 70.2899C4.08004 117.58 23.75 173.9 70.47 196.09C117.19 218.28 173.27 197.94 195.73 150.65C218.19 103.36 198.53 46.9999 151.81 24.8499Z" fill="#E7E4DC"/>
</g>
<g style="mix-blend-mode:multiply" opacity="0.17">
<path d="M75.29 186.11C34 166.51 16.66 116.79 36.49 75.05C56.32 33.31 105.83 15.36 147.08 35C188.33 54.64 205.71 104.31 185.88 146C166.05 187.69 116.54 205.7 75.29 186.11ZM151.87 24.88C105.12 2.66996 49 23 26.53 70.32C4.06002 117.64 23.74 174 70.5 196.18C117.26 218.36 173.37 198.05 195.84 150.75C218.31 103.45 198.63 47.09 151.87 24.88Z" fill="#E3DFD6"/>
</g>
<g style="mix-blend-mode:multiply" opacity="0.2">
<path d="M75.32 186.2C34 166.59 16.64 116.84 36.48 75.0899C56.32 33.3399 105.86 15.3799 147.14 34.9999C188.42 54.6199 205.82 104.35 186 146.1C166.18 187.85 116.6 205.81 75.32 186.2ZM151.93 24.9099C105.14 2.67993 49 22.9999 26.51 70.3499C4.02001 117.7 23.74 174.06 70.51 196.28C117.28 218.5 173.47 198.16 196 150.84C218.53 103.52 198.72 47.1299 151.93 24.9099Z" fill="#DFDBD0"/>
</g>
<g style="mix-blend-mode:multiply" opacity="0.22">
<path d="M75.3501 186.29C34.0001 166.67 16.6301 116.9 36.4701 75.1199C56.3101 33.3399 105.89 15.3999 147.21 34.9999C188.53 54.5999 205.93 104.4 186.09 146.17C166.25 187.94 116.67 205.92 75.3501 186.29ZM152 24.9399C105.17 2.69993 49.0001 22.9999 26.5001 70.3899C4.00005 117.78 23.7401 174.14 70.5601 196.39C117.38 218.64 173.56 198.28 196.06 150.94C218.56 103.6 198.82 47.1799 152 24.9399Z" fill="#DBD6CA"/>
</g>
<g style="mix-blend-mode:multiply" opacity="0.24">
<path d="M75.38 186.39C34 166.75 16.61 117 36.46 75.16C56.31 33.32 105.92 15.42 147.27 35.06C188.62 54.7 206 104.49 186.19 146.28C166.38 188.07 116.73 206 75.38 186.39ZM152.06 25C105.2 2.70996 49 23.06 26.48 70.42C3.96003 117.78 23.73 174.22 70.59 196.47C117.45 218.72 173.67 198.38 196.17 151C218.67 103.62 198.92 47.23 152.06 25Z" fill="#D7D1C4"/>
</g>
<g style="mix-blend-mode:multiply" opacity="0.27">
<path d="M75.42 186.48C34 166.83 16.6 117 36.45 75.1999C56.3 33.3999 106 15.4399 147.33 35.0899C188.66 54.7399 206.15 104.57 186.33 146.37C166.51 188.17 116.79 206.13 75.42 186.48ZM152.12 24.9999C105.23 2.71994 49 23.0699 26.46 70.4499C3.92001 117.83 23.73 174.3 70.62 196.57C117.51 218.84 173.78 198.5 196.28 151.12C218.78 103.74 199 47.2699 152.12 24.9999Z" fill="#D3CDBE"/>
</g>
<g style="mix-blend-mode:multiply" opacity="0.29">
<path d="M75.45 186.57C34 166.9 16.58 117.06 36.44 75.24C56.3 33.42 106 15.46 147.39 35.12C188.78 54.78 206.26 104.64 186.39 146.46C166.52 188.28 116.86 206.24 75.45 186.57ZM152.18 25C105.26 2.73996 49 23.09 26.45 70.49C3.90001 117.89 23.73 174.38 70.65 196.67C117.57 218.96 173.88 198.61 196.39 151.21C218.9 103.81 199.11 47.32 152.18 25Z" fill="#CFC8B8"/>
</g>
<g style="mix-blend-mode:multiply" opacity="0.32">
<path d="M75.48 186.67C34 167 16.56 117.11 36.44 75.2699C56.32 33.4299 106 15.4799 147.45 35.1599C188.9 54.8399 206.37 104.71 186.5 146.55C166.63 188.39 116.92 206.35 75.48 186.67ZM152.25 25.0599C105.28 2.74992 49 23.0999 26.43 70.5199C3.86005 117.94 23.7201 174.46 70.68 196.76C117.64 219.06 173.98 198.76 196.5 151.3C219.02 103.84 199.21 47.3599 152.25 25.0599Z" fill="#CBC4B3"/>
</g>
<g style="mix-blend-mode:multiply" opacity="0.34">
<path d="M75.51 186.76C34.05 167.06 16.51 117.16 36.43 75.31C56.35 33.46 106 15.49 147.51 35.19C189.02 54.89 206.51 104.79 186.6 146.64C166.69 188.49 117 206.46 75.51 186.76ZM152.31 25.09C105.31 2.75996 49 23.12 26.42 70.55C3.84001 117.98 23.72 174.55 70.72 196.86C117.72 219.17 174.08 198.86 196.61 151.4C219.14 103.94 199.31 47.41 152.31 25.09V25.09Z" fill="#C7BFAD"/>
</g>
<g style="mix-blend-mode:multiply" opacity="0.37">
<path d="M75.55 186.85C34.05 167.14 16.55 117.22 36.42 75.35C56.29 33.48 106.07 15.51 147.57 35.23C189.07 54.95 206.57 104.86 186.7 146.73C166.83 188.6 117.05 206.56 75.55 186.85ZM152.37 25.12C105.37 2.77997 48.94 23.12 26.37 70.59C3.80002 118.06 23.71 174.62 70.75 197C117.79 219.38 174.18 199 196.75 151.53C219.32 104.06 199.4 47.46 152.37 25.12Z" fill="#C3BBA7"/>
</g>
<g style="mix-blend-mode:multiply" opacity="0.39">
<path d="M75.58 186.94C34.05 167.22 16.51 117.27 36.41 75.38C56.31 33.49 106.1 15.53 147.63 35.26C189.16 54.99 206.7 104.93 186.8 146.82C166.9 188.71 117.11 206.67 75.58 186.94ZM152.44 25.15C105.37 2.78995 48.93 23.15 26.38 70.62C3.83003 118.09 23.71 174.7 70.78 197.06C117.85 219.42 174.28 199.06 196.83 151.58C219.38 104.1 199.5 47.5 152.44 25.15Z" fill="#BFB6A1"/>
</g>
<g style="mix-blend-mode:multiply" opacity="0.41">
<path d="M75.61 187C34.05 167.3 16.5 117.32 36.4 75.4199C56.3 33.5199 106.13 15.5499 147.69 35.2899C189.25 55.0299 206.81 105 186.9 146.91C166.99 188.82 117.17 206.78 75.61 187ZM152.5 25.1799C105.4 2.79994 48.93 23.1599 26.37 70.6499C3.81003 118.14 23.71 174.78 70.81 197.15C117.91 219.52 174.38 199.15 196.94 151.68C219.5 104.21 199.6 47.5499 152.5 25.1799Z" fill="#BBB19B"/>
</g>
<g style="mix-blend-mode:multiply" opacity="0.44">
<path d="M75.6501 187.13C34.0601 167.37 16.4801 117.38 36.3901 75.4599C56.3001 33.5399 106.16 15.5699 147.75 35.3299C189.34 55.0899 206.92 105.08 187 147C167.08 188.92 117.24 206.89 75.6501 187.13ZM152.56 25.2099C105.43 2.81995 48.9201 23.1799 26.3501 70.6899C3.78006 118.2 23.7001 174.86 70.8401 197.25C117.98 219.64 174.48 199.25 197.05 151.77C219.62 104.29 199.7 47.5999 152.56 25.2099Z" fill="#B7AD95"/>
</g>
<g style="mix-blend-mode:multiply" opacity="0.46">
<path d="M75.68 187.22C34.06 167.45 16.47 117.43 36.39 75.49C56.31 33.55 106.19 15.59 147.81 35.36C189.43 55.13 207 105.15 187.11 147.09C167.22 189.03 117.3 207 75.68 187.22ZM152.62 25.22C105.45 2.82997 48.91 23.19 26.34 70.72C3.77005 118.25 23.7 174.94 70.87 197.35C118.04 219.76 174.58 199.35 197.16 151.86C219.74 104.37 199.79 47.64 152.62 25.24V25.22Z" fill="#B3A88F"/>
</g>
<g style="mix-blend-mode:multiply" opacity="0.49">
<path d="M75.71 187.31C34.06 167.53 16.45 117.48 36.38 75.5299C56.31 33.5799 106.22 15.6099 147.88 35.3899C189.54 55.1699 207.14 105.23 187.21 147.18C167.28 189.13 117.36 207.1 75.71 187.31ZM152.71 25.3099C105.48 2.83995 48.9 23.2099 26.32 70.7499C3.74003 118.29 23.7 175 70.9 197.44C118.1 219.88 174.68 199.5 197.27 152C219.86 104.5 199.89 47.6899 152.69 25.2699L152.71 25.3099Z" fill="#AFA489"/>
</g>
<g style="mix-blend-mode:multiply" opacity="0.51">
<path d="M75.74 187.41C34.06 167.61 16.43 117.54 36.37 75.5699C56.31 33.5999 106.25 15.6299 147.94 35.4299C189.63 55.2299 207.25 105.3 187.31 147.27C167.37 189.24 117.43 207.21 75.74 187.41ZM152.74 25.2999C105.51 2.85995 48.9 23.2199 26.3 70.7899C3.70002 118.36 23.69 175.1 70.93 197.54C118.17 219.98 174.78 199.61 197.38 152.05C219.98 104.49 200 47.7399 152.75 25.2999H152.74Z" fill="#AC9F84"/>
</g>
<g style="mix-blend-mode:multiply" opacity="0.54">
<path d="M75.7801 187.5C34.0701 167.69 16.4201 117.59 36.3601 75.6099C56.3001 33.6299 106.28 15.6499 148 35.4599C189.72 55.2699 207.36 105.37 187.42 147.36C167.48 189.35 117.49 207.31 75.7801 187.5ZM152.78 25.3299C105.54 2.86994 48.8901 23.2399 26.2901 70.8199C3.69006 118.4 23.6901 175.18 71.0001 197.64C118.31 220.1 174.92 199.72 197.53 152.14C220.14 104.56 200.09 47.7799 152.81 25.3299H152.78Z" fill="#A89B7E"/>
</g>
<g style="mix-blend-mode:multiply" opacity="0.56">
<path d="M75.81 187.59C34.07 167.77 16.4 117.64 36.35 75.6399C56.3 33.6399 106.35 15.6399 148.06 35.4999C189.77 55.3599 207.47 105.5 187.52 147.5C167.57 189.5 117.55 207.42 75.81 187.59ZM152.87 25.3599C105.57 2.87994 48.87 23.2499 26.27 70.8499C3.67002 118.45 23.69 175.26 71 197.73C118.31 220.2 175 199.83 197.61 152.23C220.22 104.63 200.18 47.8299 152.87 25.3599Z" fill="#A49678"/>
</g>
<g style="mix-blend-mode:multiply" opacity="0.59">
<path d="M75.8401 187.69C34.0701 167.84 16.3801 117.69 36.3401 75.69C56.3001 33.69 106.34 15.69 148.12 35.54C189.9 55.39 207.58 105.54 187.62 147.54C167.66 189.54 117.62 207.53 75.8401 187.69ZM152.94 25.39C105.59 2.89995 48.8801 23.27 26.2601 70.89C3.64007 118.51 23.6801 175.34 71.0001 197.83C118.32 220.32 175.06 199.95 197.68 152.33C220.3 104.71 200.28 47.87 152.94 25.39V25.39Z" fill="#A09272"/>
</g>
<g style="mix-blend-mode:multiply" opacity="0.61">
<path d="M75.88 187.78C34.07 167.92 16.37 117.78 36.33 75.72C56.29 33.66 106.38 15.72 148.18 35.56C189.98 55.4 207.69 105.56 187.72 147.63C167.75 189.7 117.68 207.64 75.88 187.78ZM153 25.42C105.62 2.90996 48.87 23.28 26.24 70.92C3.61003 118.56 23.68 175.42 71.06 197.92C118.44 220.42 175.19 200.05 197.81 152.41C220.43 104.77 200.38 47.92 153 25.42Z" fill="#9C8D6C"/>
</g>
<g style="mix-blend-mode:multiply" opacity="0.63">
<path d="M75.9101 187.87C34.0701 168 16.3501 117.8 36.3301 75.7499C56.3101 33.6999 106.41 15.7499 148.24 35.5999C190.07 55.4499 207.8 105.67 187.82 147.72C167.84 189.77 117.74 207.74 75.9101 187.87ZM153.06 25.4399C105.65 2.91994 48.8601 23.2999 26.2301 70.9999C3.60006 118.7 23.6701 175.5 71.0901 198C118.51 220.5 175.29 200.15 197.92 152.49C220.55 104.83 200.48 47.9999 153.06 25.4399Z" fill="#988866"/>
</g>
<g style="mix-blend-mode:multiply" opacity="0.66">
<path d="M75.94 188C34.08 168.12 16.34 117.9 36.32 75.83C56.3 33.76 106.44 15.83 148.32 35.67C190.2 55.51 207.93 105.78 187.95 147.85C167.97 189.92 117.81 207.85 75.94 188ZM153.13 25.47C105.68 2.93996 48.86 23.31 26.21 71C3.56002 118.69 23.67 175.58 71.12 198.12C118.57 220.66 175.39 200.28 198 152.61C220.61 104.94 200.57 48 153.13 25.47Z" fill="#948460"/>
</g>
<g style="mix-blend-mode:multiply" opacity="0.68">
<path d="M76 188.06C34.08 168.16 16.32 117.91 36.31 75.8299C56.3 33.7499 106.47 15.7599 148.36 35.6599C190.25 55.5599 208 105.81 188 147.89C168 189.97 117.87 208 76 188.06ZM153.19 25.4999C105.71 2.99994 48.85 23.3299 26.19 70.9999C3.53001 118.67 23.67 175.64 71.19 198.2C118.71 220.76 175.53 200.37 198.19 152.68C220.85 104.99 200.67 48.0599 153.19 25.4999Z" fill="#907F5A"/>
</g>
<g style="mix-blend-mode:multiply" opacity="0.71">
<path d="M76.0001 188.15C34.0801 168.23 16.3001 118 36.3001 75.8599C56.3001 33.7199 106.5 15.7799 148.42 35.6999C190.34 55.6199 208.13 105.89 188.13 148C168.13 190.11 117.93 208.07 76.0001 188.15ZM153.25 25.5299C105.73 2.99993 48.8401 23.3399 26.1801 71.0599C3.52007 118.78 23.6601 175.74 71.1801 198.31C118.7 220.88 175.59 200.5 198.25 152.79C220.91 105.08 200.77 48.1099 153.25 25.5299Z" fill="#8C7B55"/>
</g>
<g style="mix-blend-mode:multiply" opacity="0.73">
<path d="M76 188.24C55.8382 178.607 40.3282 161.36 32.8813 140.293C25.4345 119.226 26.6606 96.0633 36.29 75.8999C56.29 33.7899 106.53 15.7999 148.48 35.7299C168.704 45.3414 184.282 62.5932 191.786 83.6901C199.29 104.787 198.106 128.001 188.495 148.225C178.884 168.449 161.632 184.027 140.535 191.531C119.438 199.035 96.2241 197.851 76 188.24V188.24ZM153.31 25.5599C105.76 2.99994 48.83 23.3599 26.16 71.0899C3.49002 118.82 23.66 175.82 71.21 198.41C118.76 221 175.69 200.62 198.36 152.89C221.03 105.16 200.87 48.1499 153.31 25.5599Z" fill="#88764F"/>
</g>
<g style="mix-blend-mode:multiply" opacity="0.76">
<path d="M76.07 188.34C60.9492 181.219 48.2815 169.77 39.671 155.445C31.0605 141.12 26.8945 124.562 27.7003 107.867C28.5062 91.1729 34.2477 75.093 44.1979 61.6637C54.1481 48.2344 67.8596 38.0596 83.596 32.4277C99.3324 26.7959 116.386 25.9602 132.598 30.0265C148.81 34.0928 163.45 42.8782 174.666 55.2704C185.881 67.6625 193.167 83.104 195.602 99.6397C198.036 116.175 195.509 133.061 188.34 148.16C178.78 168.376 161.581 183.966 140.526 191.501C119.472 199.036 96.2863 197.899 76.07 188.34V188.34ZM153.38 25.59C105.79 2.99996 48.83 23.37 26.15 71.12C3.47004 118.87 23.66 175.9 71.24 198.51C118.82 221.12 175.79 200.73 198.47 153C221.15 105.27 201 48.2 153.38 25.59Z" fill="#847249"/>
</g>
<g style="mix-blend-mode:multiply" opacity="0.78">
<path d="M76.11 188.43C60.9832 181.303 48.3115 169.847 39.6994 155.513C31.0872 141.18 26.922 124.613 27.731 107.911C28.5401 91.2088 34.2871 75.1223 44.2443 61.6883C54.2015 48.2543 67.9211 38.077 83.666 32.4452C99.4108 26.8133 116.473 25.9801 132.691 30.0511C148.91 34.1221 163.556 42.9141 174.775 55.314C185.994 67.7139 193.281 83.164 195.713 99.7079C198.146 116.252 195.615 133.146 188.44 148.25C178.87 168.472 161.66 184.065 140.595 191.599C119.53 199.134 96.3346 197.994 76.11 188.43V188.43ZM153.44 25.6199C105.82 2.99995 48.82 23.3899 26.13 71.1599C3.44002 118.93 23.65 176 71.27 198.6C82.6187 203.97 94.9142 207.053 107.454 207.671C119.994 208.29 132.533 206.432 144.355 202.204C156.177 197.976 167.051 191.461 176.355 183.03C185.659 174.6 193.211 164.419 198.58 153.07C221.27 105.3 201.06 48.2399 153.44 25.6199Z" fill="#806D43"/>
</g>
<g style="mix-blend-mode:multiply" opacity="0.8">
<path d="M76.14 188.52C61.012 181.385 48.3411 169.921 39.7316 155.581C31.1221 141.241 26.961 124.668 27.7752 107.962C28.5895 91.2552 34.3423 75.1659 44.3056 61.7307C54.2688 48.2956 67.9943 38.1186 83.7446 32.4883C99.4948 26.8581 116.561 26.0276 132.784 30.1021C149.006 34.1766 163.655 42.9728 174.876 55.3772C186.096 67.7815 193.384 83.2363 195.817 99.7848C198.249 116.333 195.717 133.231 188.54 148.34C183.798 158.359 177.13 167.346 168.915 174.787C160.7 182.229 151.1 187.979 140.662 191.71C130.225 195.442 119.155 197.08 108.084 196.533C97.013 195.985 86.1585 193.263 76.14 188.52ZM153.5 25.6499C136.399 17.4707 117.256 14.5491 98.4943 17.255C79.7323 19.961 62.195 28.1728 48.1024 40.851C34.0099 53.5291 23.9958 70.1035 19.3279 88.4759C14.66 106.848 15.5481 126.193 21.8799 144.06C28.2116 161.927 39.7023 177.514 54.8973 188.848C70.0923 200.181 88.3083 206.752 107.239 207.727C126.17 208.703 144.965 204.039 161.244 194.327C177.524 184.616 190.556 170.292 198.69 153.17C209.606 130.267 210.978 103.966 202.503 80.0515C194.029 56.1373 176.402 36.5686 153.5 25.6499V25.6499Z" fill="#7C683D"/>
</g>
<g style="mix-blend-mode:multiply" opacity="0.83">
<path d="M76.17 188.61C61.0407 181.467 48.3707 169.996 39.7638 155.649C31.1568 141.301 27 124.723 27.8194 108.012C28.6388 91.3016 34.3975 75.2096 44.3668 61.7732C54.336 48.3369 68.0675 38.1603 83.8231 32.5316C99.5787 26.9029 116.65 26.0752 132.876 30.1532C149.103 34.2311 163.754 43.0315 174.976 55.4404C186.199 67.8492 193.487 83.3086 195.92 99.8617C198.352 116.415 195.819 133.317 188.64 148.43C183.895 158.454 177.221 167.445 169 174.89C160.779 182.334 151.172 188.086 140.728 191.818C130.284 195.549 119.207 197.186 108.13 196.636C97.053 196.085 86.1929 193.358 76.17 188.61V188.61ZM153.56 25.68C136.45 17.5032 117.3 14.5865 98.5315 17.299C79.7635 20.0114 62.2221 28.2311 48.1277 40.9175C34.0334 53.604 24.0197 70.1868 19.3544 88.567C14.689 106.947 15.5816 126.298 21.9193 144.171C28.2569 162.044 39.7547 177.634 54.9571 188.969C70.1595 200.304 88.3831 206.874 107.321 207.847C126.259 208.82 145.06 204.153 161.344 194.436C177.629 184.719 190.664 170.389 198.8 153.26C204.207 141.913 207.327 129.611 207.98 117.058C208.632 104.505 206.806 91.9467 202.605 80.0995C198.404 68.2524 191.911 57.3488 183.495 48.0115C175.08 38.6741 164.908 31.0858 153.56 25.68V25.68Z" fill="#786437"/>
</g>
<g style="mix-blend-mode:multiply" opacity="0.85">
<path d="M76.2 188.71C61.0658 181.56 48.3929 170.082 39.7851 155.727C31.1774 141.372 27.0219 124.786 27.8445 108.068C28.6671 91.3501 34.4308 75.2521 44.4063 61.8115C54.3817 48.3709 68.1203 38.1917 83.8833 32.5625C99.6463 26.9333 116.725 26.107 132.958 30.1882C149.191 34.2694 163.848 43.0747 175.074 55.4896C186.301 67.9044 193.591 83.3707 196.024 99.931C198.457 116.491 195.922 133.401 188.74 148.52C179.146 168.773 161.899 184.386 140.794 191.923C119.688 199.46 96.4533 198.304 76.2 188.71ZM153.63 25.7099C136.514 17.5371 117.358 14.6256 98.5863 17.344C79.8148 20.0623 62.2716 28.2883 48.177 40.9809C34.0824 53.6735 24.07 70.2621 19.4069 88.6473C14.7438 107.032 15.6397 126.388 21.9811 144.264C28.3225 162.139 39.8244 177.732 55.0312 189.069C70.2379 200.405 88.4659 206.975 107.408 207.948C126.351 208.921 145.156 204.253 161.444 194.534C177.732 184.815 190.771 170.482 198.91 153.35C209.831 130.419 211.195 104.09 202.704 80.1527C194.212 56.2159 176.56 36.6324 153.63 25.7099V25.7099Z" fill="#745F31"/>
</g>
<g style="mix-blend-mode:multiply" opacity="0.88">
<path d="M76.24 188.8C61.1045 181.643 48.4324 170.156 39.8273 155.794C31.2222 141.432 27.0709 124.841 27.8986 108.119C28.7264 91.3965 34.496 75.2958 44.4775 61.854C54.4589 48.4122 68.2035 38.2334 83.9718 32.6058C99.7402 26.9781 116.824 26.1545 133.06 30.2393C149.297 34.324 163.957 43.1334 175.185 55.5527C186.413 67.9721 193.705 83.443 196.137 100.008C198.57 116.573 196.034 133.487 188.85 148.61C179.246 168.872 161.986 184.489 140.868 192.026C119.75 199.563 96.5027 198.403 76.24 188.8V188.8ZM153.69 25.74C136.566 17.5663 117.402 14.6561 98.624 17.3777C79.8455 20.0993 62.2965 28.3303 48.1977 41.0292C34.0989 53.728 24.0841 70.3239 19.4207 88.7165C14.7572 107.109 15.6548 126.472 21.9997 144.354C28.3447 162.236 39.8518 177.835 55.0649 189.175C70.278 200.515 88.5132 207.087 107.463 208.06C126.413 209.033 145.225 204.362 161.519 194.639C177.814 184.917 190.857 170.579 199 153.44C209.924 130.497 211.287 104.155 202.79 80.2069C194.293 56.2591 176.631 36.667 153.69 25.74V25.74Z" fill="#705B2B"/>
</g>
<g style="mix-blend-mode:multiply" opacity="0.9">
<path d="M76.2701 188.89C61.1397 181.718 48.4763 170.22 39.8815 155.849C31.2867 141.479 27.1467 124.883 27.9851 108.16C28.8235 91.4369 34.6027 75.338 44.5916 61.8997C54.5806 48.4613 68.3306 38.2873 84.1024 32.6644C99.8742 27.0415 116.959 26.2223 133.197 30.3105C149.434 34.3988 164.095 43.2107 175.323 55.6317C186.552 68.0528 193.845 83.5249 196.279 100.091C198.714 116.657 196.181 133.574 189 148.7C184.241 158.744 177.549 167.752 169.306 175.208C161.064 182.665 151.433 188.424 140.964 192.156C130.495 195.889 119.392 197.521 108.292 196.961C97.1913 196.401 86.3101 193.658 76.2701 188.89V188.89ZM153.75 25.77C136.616 17.6032 117.445 14.7022 98.6621 17.434C79.8792 20.1657 62.3286 28.4075 48.2309 41.1164C34.1332 53.8254 24.1221 70.4304 19.4641 88.8306C14.806 107.231 15.7105 126.599 22.0631 144.485C28.4156 162.371 39.9307 177.971 55.1515 189.31C70.3722 200.65 88.6145 207.221 107.57 208.19C126.526 209.159 145.343 204.484 161.642 194.756C177.94 185.028 190.986 170.685 199.13 153.54C204.541 142.171 207.659 129.847 208.307 117.273C208.954 104.699 207.119 92.1204 202.905 80.2556C198.691 68.3908 192.181 57.4724 183.747 48.1236C175.313 38.7749 165.12 31.1791 153.75 25.77V25.77Z" fill="#6C5626"/>
</g>
<g style="mix-blend-mode:multiply" opacity="0.93">
<path d="M76.3 189C61.1584 181.828 48.4842 170.326 39.8809 155.95C31.2776 141.573 27.1317 124.968 27.9679 108.235C28.804 91.5014 34.5845 75.3921 44.5782 61.9448C54.5718 48.4975 68.3295 38.3166 84.1106 32.69C99.8917 27.0633 116.987 26.2439 133.234 30.3354C149.481 34.4268 164.149 43.2453 175.383 55.6751C186.617 68.1049 193.912 83.5875 196.345 100.164C198.778 116.741 196.239 133.666 189.05 148.8C179.428 169.081 162.144 184.709 141 192.248C119.855 199.787 96.5828 198.619 76.3 189V189ZM153.82 25.7999C136.675 17.6281 117.49 14.7257 98.6949 17.4602C79.8994 20.1947 62.3375 28.4431 48.2313 41.1617C34.1251 53.8802 24.1086 70.4973 19.4494 88.9103C14.7901 107.323 15.6975 126.705 22.0566 144.602C28.4157 162.499 39.9409 178.108 55.1736 189.453C70.4064 200.798 88.6621 207.369 107.631 208.336C126.6 209.302 145.429 204.62 161.736 194.882C178.043 185.144 191.095 170.788 199.24 153.63C210.164 130.655 211.516 104.282 202.999 80.3101C194.481 56.3384 176.792 36.7311 153.82 25.7999V25.7999Z" fill="#685220"/>
</g>
<g style="mix-blend-mode:multiply" opacity="0.95">
<path d="M76.34 189.08C61.1993 181.901 48.5277 170.393 39.9282 156.012C31.3287 141.63 27.1875 125.021 28.0286 108.286C28.8696 91.5508 34.6551 75.4409 44.6531 61.994C54.6511 48.5472 68.4126 38.3676 84.1968 32.7429C99.981 27.1182 117.079 26.301 133.327 30.3948C149.576 34.4886 164.246 43.3094 175.48 55.7414C186.715 68.1735 194.011 83.6582 196.444 100.237C198.877 116.816 196.339 133.744 189.15 148.88C184.383 158.927 177.683 167.936 169.433 175.394C161.184 182.852 151.546 188.612 141.071 192.344C130.596 196.077 119.487 197.71 108.381 197.15C97.2742 196.59 86.3868 193.848 76.34 189.08V189.08ZM153.88 25.8299C136.733 17.6726 117.551 14.7839 98.7615 17.5291C79.9721 20.2743 62.4188 28.5301 48.3219 41.2523C34.2249 53.9745 24.2176 70.5916 19.5655 89.0019C14.9135 107.412 15.8258 126.789 22.187 144.68C28.5483 162.572 40.0726 178.175 55.3026 189.517C70.5325 200.858 88.7838 207.428 107.748 208.396C126.712 209.364 145.538 204.685 161.843 194.953C178.148 185.221 191.201 170.871 199.35 153.72C210.273 130.73 211.62 104.343 203.093 80.3609C194.566 56.3786 176.865 36.7641 153.88 25.8299V25.8299Z" fill="#644D1A"/>
</g>
<g style="mix-blend-mode:multiply" opacity="0.98">
<path d="M76.3701 189.17C61.2265 181.98 48.5554 170.46 39.9595 156.068C31.3636 141.676 27.229 125.058 28.0787 108.315C28.9284 91.573 34.7243 75.4588 44.7332 62.0108C54.742 48.5629 68.5143 38.3853 84.308 32.7654C100.102 27.1454 117.207 26.3356 133.461 30.4384C149.715 34.5412 164.388 43.3722 175.622 55.8144C186.857 68.2567 194.149 83.7513 196.576 100.338C199.004 116.926 196.458 133.86 189.26 149C179.616 169.297 162.305 184.931 141.134 192.465C119.963 199.998 96.6671 198.813 76.3701 189.17V189.17ZM153.94 25.8599C136.791 17.7222 117.615 14.851 98.8347 17.609C80.0545 20.3671 62.5134 28.6307 48.4284 41.3553C34.3434 54.08 24.3468 70.6946 19.702 89.0992C15.0573 107.504 15.9728 126.872 22.333 144.757C28.6931 162.641 40.2124 178.239 55.4348 189.578C70.6573 200.917 88.8997 207.489 107.856 208.464C126.813 209.438 145.633 204.771 161.938 195.052C178.242 185.333 191.3 170.998 199.46 153.86C204.884 142.468 208.009 130.118 208.657 117.518C209.305 104.917 207.462 92.3118 203.234 80.4237C199.007 68.5356 192.477 57.5976 184.018 48.235C175.56 38.8725 165.339 31.2692 153.94 25.8599V25.8599Z" fill="#604914"/>
</g>
<g style="mix-blend-mode:multiply">
<path d="M76.4 189.26C61.2597 182.059 48.5944 170.531 40.0051 156.133C31.4158 141.735 27.2882 125.113 28.1442 108.37C29.0002 91.6261 34.8013 75.5122 44.8141 62.0651C54.8269 48.618 68.6019 38.4416 84.3976 32.8222C100.193 27.2029 117.3 26.393 133.556 30.4949C149.812 34.5968 164.487 43.4264 175.725 55.8673C186.964 68.3083 194.261 83.802 196.695 100.39C199.129 116.978 196.591 133.915 189.4 149.06C184.623 159.122 177.91 168.144 169.645 175.61C161.379 183.076 151.724 188.841 141.23 192.574C130.736 196.307 119.609 197.936 108.485 197.368C97.3613 196.799 86.4586 194.044 76.4 189.26V189.26ZM154 25.8899C136.835 17.7367 117.637 14.8569 98.8348 17.6146C80.0327 20.3723 62.4706 28.6437 48.3695 41.3828C34.2684 54.1218 24.2616 70.7563 19.6146 89.1827C14.9677 107.609 15.8893 127 22.2629 144.902C28.6365 162.805 40.1758 178.415 55.4216 189.76C70.6673 201.104 88.9347 207.672 107.914 208.634C126.893 209.596 145.731 204.909 162.045 195.164C178.36 185.42 191.419 171.056 199.57 153.89C204.983 142.493 208.098 130.142 208.738 117.541C209.377 104.941 207.528 92.3375 203.296 80.4515C199.065 68.5654 192.533 57.6293 184.075 48.2676C175.617 38.9059 165.397 31.3019 154 25.8899V25.8899Z" fill="#5C440E"/>
</g>
<path d="M153.35 27.27C136.457 19.2484 117.564 16.4163 99.0607 19.1316C80.5577 21.8469 63.2753 29.9877 49.3987 42.5247C35.5221 55.0617 25.6746 71.4319 21.1013 89.5653C16.528 107.699 17.4343 126.781 23.7056 144.399C29.9769 162.018 41.3316 177.381 56.3339 188.546C71.3362 199.712 89.3124 206.178 107.989 207.128C126.667 208.077 145.206 203.467 161.263 193.881C177.32 184.294 190.174 170.162 198.2 153.27C203.53 142.052 206.598 129.894 207.228 117.49C207.859 105.087 206.04 92.6802 201.875 80.9796C197.71 69.279 191.281 58.5135 182.955 49.2979C174.629 40.0823 164.569 32.5972 153.35 27.27V27.27ZM77 188.05C62.0933 180.969 49.621 169.627 41.1603 155.458C32.6996 141.289 28.6305 124.93 29.4675 108.448C30.3046 91.9665 36.0102 76.1033 45.8628 62.8643C55.7155 49.6254 69.2727 39.6054 84.82 34.0715C100.367 28.5375 117.207 27.7382 133.208 31.7745C149.21 35.8108 163.655 44.5015 174.718 56.7476C185.78 68.9937 192.963 84.2452 195.357 100.573C197.752 116.902 195.251 133.573 188.17 148.48C183.469 158.378 176.864 167.253 168.733 174.598C160.602 181.943 151.103 187.615 140.78 191.289C130.457 194.964 119.511 196.569 108.568 196.013C97.6246 195.457 86.8977 192.751 77 188.05V188.05Z" fill="url(#paint1_linear_2_22)"/>
<path d="M155.06 23.66C137.454 15.3019 117.765 12.3516 98.483 15.1821C79.2006 18.0126 61.1904 26.4968 46.7293 39.562C32.2682 52.6272 22.0056 69.6868 17.2389 88.584C12.4723 107.481 13.4157 127.367 19.9499 145.728C26.484 164.089 38.3155 180.101 53.9485 191.738C69.5815 203.376 88.3141 210.117 107.778 211.109C127.242 212.102 146.563 207.301 163.298 197.314C180.034 187.326 193.432 172.601 201.8 155C207.359 143.308 210.559 130.635 211.218 117.705C211.877 104.776 209.982 91.8431 205.642 79.6461C201.301 67.4491 194.6 56.2269 185.921 46.6206C177.242 37.0142 166.755 29.2121 155.06 23.66V23.66ZM75.47 191.23C59.9211 183.852 46.9097 172.028 38.0818 157.254C29.254 142.48 25.0064 125.42 25.8764 108.231C26.7465 91.0428 32.695 74.4985 42.9694 60.6913C53.2439 46.8842 67.3827 36.4346 83.5972 30.6645C99.8116 24.8944 117.373 24.0631 134.06 28.2757C150.747 32.4884 165.81 41.5556 177.343 54.3305C188.875 67.1054 196.36 83.0138 198.85 100.043C201.34 117.073 198.723 134.458 191.33 150C181.425 170.824 163.658 186.863 141.933 194.594C120.208 202.325 96.3032 201.115 75.47 191.23V191.23Z" fill="url(#paint2_linear_2_22)"/>
<path d="M154.33 25.21C137.029 16.9892 117.679 14.0838 98.7271 16.8611C79.7749 19.6383 62.0721 27.9736 47.8575 40.8127C33.6429 53.6517 23.5551 70.4178 18.8699 88.9905C14.1846 107.563 15.1125 127.108 21.5361 145.154C27.9597 163.199 39.5904 178.934 54.9573 190.369C70.3243 201.803 88.7371 208.424 107.867 209.394C126.997 210.363 145.985 205.638 162.429 195.815C178.873 185.992 192.035 171.513 200.25 154.21C211.26 131.013 212.607 104.393 203.996 80.2033C195.386 56.0131 177.521 36.2325 154.33 25.21V25.21ZM76.11 189.87C60.8496 182.613 48.0836 170.994 39.4258 156.482C30.768 141.971 26.6072 125.218 27.4693 108.342C28.3315 91.4658 34.1779 75.2242 44.2695 61.6705C54.3611 48.1167 68.2448 37.8593 84.1653 32.1951C100.086 26.5309 117.328 25.7142 133.713 29.8482C150.097 33.9822 164.888 42.8813 176.216 55.4205C187.544 67.9596 194.899 83.5758 197.353 100.295C199.806 117.014 197.247 134.085 190 149.35C185.184 159.49 178.418 168.582 170.087 176.107C161.757 183.632 152.026 189.441 141.449 193.204C130.873 196.967 119.659 198.609 108.448 198.037C97.2369 197.465 86.2483 194.69 76.11 189.87V189.87Z" fill="url(#paint3_linear_2_22)"/>
<path style="mix-blend-mode:overlay" d="M201.56 154.83C193.199 172.432 179.805 187.159 163.074 197.15C146.343 207.14 127.025 211.944 107.563 210.956C88.1009 209.967 69.3692 203.23 53.7362 191.596C38.1033 179.962 26.2714 163.953 19.7365 145.594C13.2016 127.236 12.2573 107.352 17.0231 88.4563C21.7888 69.5611 32.0505 52.5033 46.5106 39.44C60.9706 26.3767 78.9796 17.8945 98.2602 15.0661C117.541 12.2377 137.227 15.1901 154.83 23.55C166.519 29.1011 177 36.9003 185.674 46.5022C194.348 56.1041 201.046 67.3206 205.386 79.5112C209.725 91.7018 211.621 104.628 210.964 117.551C210.308 130.474 207.112 143.142 201.56 154.83Z" fill="url(#paint4_linear_2_22)"/>
<g style="mix-blend-mode:multiply">
<path d="M130.95 75.14L131.41 106.26L157.31 123.52L127.86 133.58L119.45 163.55L100.78 138.65L69.69 139.91L87.6 114.46L76.79 85.27L106.53 94.44L130.95 75.14Z" fill="#969696"/>
</g>
<path style="mix-blend-mode:color-dodge" d="M193.35 79.8399C193.49 80.2299 178.22 86.03 159.24 92.78C140.26 99.53 124.77 104.69 124.63 104.29C124.49 103.89 139.75 98.0999 158.73 91.3499C177.71 84.5999 193.2 79.4399 193.35 79.8399Z" fill="url(#paint5_radial_2_22)"/>
<path style="mix-blend-mode:color-dodge" d="M142.24 67.82C142.74 68.07 139.24 76.43 134.49 86.51C129.74 96.59 125.41 104.51 124.9 104.31C124.39 104.11 127.9 95.7 132.65 85.63C137.4 75.56 141.73 67.58 142.24 67.82Z" fill="url(#paint6_radial_2_22)"/>
<path style="mix-blend-mode:color-dodge" d="M100.94 38.54C101.54 38.32 107.26 52.86 113.72 71.01C120.18 89.16 124.93 104.01 124.33 104.25C123.73 104.49 118 89.93 111.55 71.78C105.1 53.63 100.34 38.75 100.94 38.54Z" fill="url(#paint7_radial_2_22)"/>
<path style="mix-blend-mode:color-dodge" d="M89.64 88.42C89.95 87.77 97.74 90.82 107.03 95.23C116.32 99.64 123.61 103.76 123.3 104.41C122.99 105.06 115.2 102.01 105.91 97.59C96.62 93.17 89.33 89.07 89.64 88.42Z" fill="url(#paint8_radial_2_22)"/>
<path style="mix-blend-mode:color-dodge" d="M57.24 128.29C57.11 127.91 71.94 122.29 90.37 115.71C108.8 109.13 123.85 104.15 124 104.54C124.15 104.93 109.31 110.54 90.88 117.12C72.45 123.7 57.38 128.68 57.24 128.29Z" fill="url(#paint9_radial_2_22)"/>
<path style="mix-blend-mode:color-dodge" d="M108.5 137.63C108.02 137.4 111.08 129.94 115.35 120.97C119.62 112 123.46 104.9 123.94 105.13C124.42 105.36 121.36 112.82 117.09 121.8C112.82 130.78 109 137.86 108.5 137.63Z" fill="url(#paint10_radial_2_22)"/>
<path style="mix-blend-mode:color-dodge" d="M147.8 171.11C147.21 171.32 141.5 156.78 135.04 138.63C128.58 120.48 123.82 105.63 124.41 105.4C125 105.17 130.72 119.73 137.17 137.88C143.62 156.03 148.39 170.9 147.8 171.11Z" fill="url(#paint11_radial_2_22)"/>
<path style="mix-blend-mode:color-dodge" d="M164.46 124C164.17 124.62 155.08 120.92 144.16 115.74C133.24 110.56 124.64 105.84 124.94 105.22C125.24 104.6 134.32 108.3 145.23 113.48C156.14 118.66 164.76 123.4 164.46 124Z" fill="url(#paint12_radial_2_22)"/>
<path style="mix-blend-mode:color-dodge" d="M156 94C158.218 100.233 158.538 106.983 156.919 113.398C155.3 119.813 151.816 125.603 146.906 130.038C141.997 134.472 135.882 137.351 129.336 138.31C122.791 139.269 116.107 138.266 110.132 135.427C104.156 132.589 99.1566 128.041 95.7652 122.361C92.3738 116.681 90.7429 110.122 91.0788 103.515C91.4147 96.9081 93.7023 90.5489 97.6523 85.2419C101.602 79.9348 107.037 75.9182 113.27 73.7C117.409 72.2271 121.797 71.5838 126.184 71.8068C130.571 72.0299 134.872 73.1149 138.839 74.9999C142.807 76.885 146.365 79.5331 149.31 82.7932C152.254 86.0532 154.527 89.8613 156 94V94Z" fill="url(#paint13_radial_2_22)"/>
<path style="mix-blend-mode:color-dodge" d="M140.11 99.64C141.218 102.724 141.385 106.067 140.592 109.246C139.799 112.426 138.08 115.298 135.654 117.5C133.227 119.702 130.202 121.135 126.961 121.617C123.72 122.099 120.408 121.609 117.446 120.208C114.484 118.807 112.004 116.559 110.319 113.749C108.635 110.938 107.823 107.691 107.985 104.418C108.147 101.145 109.276 97.9941 111.23 95.3635C113.184 92.7329 115.874 90.741 118.96 89.64C123.091 88.1662 127.638 88.3914 131.603 90.2661C135.568 92.1409 138.628 95.5121 140.11 99.64V99.64Z" fill="url(#paint14_radial_2_22)"/>
<defs>
<linearGradient id="paint0_linear_2_22" x1="76.1499" y1="189.915" x2="149.482" y2="35.548" gradientUnits="userSpaceOnUse">
<stop stop-color="#9D602A"/>
<stop offset="0.15" stop-color="#BE7936"/>
<stop offset="0.27" stop-color="#D38A3D"/>
<stop offset="0.35" stop-color="#DB9040"/>
<stop offset="0.36" stop-color="#DC9142"/>
<stop offset="0.43" stop-color="#E79D53"/>
<stop offset="0.48" stop-color="#EBA159"/>
<stop offset="1" stop-color="#E07E2D"/>
</linearGradient>
<linearGradient id="paint1_linear_2_22" x1="162.065" y1="180.734" x2="63.2247" y2="44.1159" gradientUnits="userSpaceOnUse">
<stop stop-color="#FAB15E"/>
<stop offset="0.04" stop-color="#F8AF5D"/>
<stop offset="0.05" stop-color="#F1AA59"/>
<stop offset="0.06" stop-color="#E6A053"/>
<stop offset="0.07" stop-color="#D59249"/>
<stop offset="0.08" stop-color="#A46B2E"/>
<stop offset="0.09" stop-color="#9A6229"/>
<stop offset="0.11" stop-color="#935D26"/>
<stop offset="0.15" stop-color="#915B25"/>
<stop offset="0.16" stop-color="#8F5A24"/>
<stop offset="0.17" stop-color="#5C380E"/>
<stop offset="0.42" stop-color="#C88040"/>
<stop offset="0.48" stop-color="#DD964B"/>
<stop offset="0.54" stop-color="#ECA653"/>
<stop offset="0.6" stop-color="#F5B058"/>
<stop offset="0.69" stop-color="#F8B359"/>
<stop offset="0.73" stop-color="#F6B158"/>
<stop offset="0.74" stop-color="#EFAC55"/>
<stop offset="0.75" stop-color="#E4A24F"/>
<stop offset="0.76" stop-color="#BD823B"/>
<stop offset="0.77" stop-color="#966227"/>
<stop offset="0.81" stop-color="#986328"/>
<stop offset="0.83" stop-color="#9F692B"/>
<stop offset="0.84" stop-color="#AA7232"/>
<stop offset="0.85" stop-color="#D19045"/>
<stop offset="0.86" stop-color="#E3A04F"/>
<stop offset="0.87" stop-color="#EFAC55"/>
<stop offset="0.89" stop-color="#F5B358"/>
<stop offset="0.92" stop-color="#F7CE59"/>
<stop offset="0.94" stop-color="#FACB62"/>
<stop offset="0.96" stop-color="#FEC86B"/>
<stop offset="1" stop-color="#FFC76E"/>
</linearGradient>
<linearGradient id="paint2_linear_2_22" x1="119.977" y1="201.747" x2="105.919" y2="26.5573" gradientUnits="userSpaceOnUse">
<stop stop-color="#FFC76E"/>
<stop offset="0.04" stop-color="#FEC86B"/>
<stop offset="0.06" stop-color="#FACB62"/>
<stop offset="0.08" stop-color="#F7B559"/>
<stop offset="0.11" stop-color="#F5B358"/>
<stop offset="0.13" stop-color="#EFAC55"/>
<stop offset="0.14" stop-color="#DE9A4C"/>
<stop offset="0.15" stop-color="#BB7F3A"/>
<stop offset="0.16" stop-color="#AA7232"/>
<stop offset="0.17" stop-color="#9F692B"/>
<stop offset="0.19" stop-color="#986328"/>
<stop offset="0.23" stop-color="#A26C2D"/>
<stop offset="0.24" stop-color="#D39446"/>
<stop offset="0.25" stop-color="#E4A24F"/>
<stop offset="0.26" stop-color="#EFAC55"/>
<stop offset="0.27" stop-color="#F6B158"/>
<stop offset="0.31" stop-color="#F8B359"/>
<stop offset="0.4" stop-color="#F5B058"/>
<stop offset="0.46" stop-color="#ECA653"/>
<stop offset="0.52" stop-color="#DD964B"/>
<stop offset="0.58" stop-color="#C77F40"/>
<stop offset="0.83" stop-color="#885521"/>
<stop offset="0.84" stop-color="#8F5A24"/>
<stop offset="0.85" stop-color="#915B25"/>
<stop offset="0.89" stop-color="#935D26"/>
<stop offset="0.91" stop-color="#9D652A"/>
<stop offset="0.92" stop-color="#BF803D"/>
<stop offset="0.93" stop-color="#D59249"/>
<stop offset="0.94" stop-color="#E6A053"/>
<stop offset="0.95" stop-color="#F1AA59"/>
<stop offset="0.96" stop-color="#F8AF5D"/>
<stop offset="1" stop-color="#FAB15E"/>
</linearGradient>
<linearGradient id="paint3_linear_2_22" x1="105.083" y1="16.1296" x2="120.579" y2="209.218" gradientUnits="userSpaceOnUse">
<stop stop-color="#FFC76E"/>
<stop offset="0.04" stop-color="#FEC86B"/>
<stop offset="0.06" stop-color="#FACB62"/>
<stop offset="0.08" stop-color="#F7B559"/>
<stop offset="0.11" stop-color="#F5B358"/>
<stop offset="0.13" stop-color="#EFAC55"/>
<stop offset="0.14" stop-color="#DE9A4C"/>
<stop offset="0.15" stop-color="#BB7F3A"/>
<stop offset="0.16" stop-color="#AA7232"/>
<stop offset="0.17" stop-color="#9F692B"/>
<stop offset="0.19" stop-color="#986328"/>
<stop offset="0.23" stop-color="#A26C2D"/>
<stop offset="0.24" stop-color="#D39446"/>
<stop offset="0.25" stop-color="#E4A24F"/>
<stop offset="0.26" stop-color="#EFAC55"/>
<stop offset="0.27" stop-color="#F6B158"/>
<stop offset="0.31" stop-color="#F8B359"/>
<stop offset="0.4" stop-color="#F5B058"/>
<stop offset="0.46" stop-color="#ECA653"/>
<stop offset="0.52" stop-color="#DD964B"/>
<stop offset="0.58" stop-color="#C77F40"/>
<stop offset="0.83" stop-color="#885521"/>
<stop offset="0.84" stop-color="#8F5A24"/>
<stop offset="0.85" stop-color="#915B25"/>
<stop offset="0.89" stop-color="#935D26"/>
<stop offset="0.91" stop-color="#9D652A"/>
<stop offset="0.92" stop-color="#BF803D"/>
<stop offset="0.93" stop-color="#D59249"/>
<stop offset="0.94" stop-color="#E6A053"/>
<stop offset="0.95" stop-color="#F1AA59"/>
<stop offset="0.96" stop-color="#F8AF5D"/>
<stop offset="1" stop-color="#FAB15E"/>
</linearGradient>
<linearGradient id="paint4_linear_2_22" x1="82.8047" y1="20.0051" x2="144.131" y2="210.398" gradientUnits="userSpaceOnUse">
<stop stop-color="#EBEBEB"/>
<stop offset="1" stop-color="#242424"/>
</linearGradient>
<radialGradient id="paint5_radial_2_22" cx="0" cy="0" r="1" gradientUnits="userSpaceOnUse" gradientTransform="translate(190.478 57.3917) rotate(-19.3978) scale(36.5826 0.768325)">
<stop stop-color="white"/>
<stop offset="1"/>
</radialGradient>
<radialGradient id="paint6_radial_2_22" cx="0" cy="0" r="1" gradientUnits="userSpaceOnUse" gradientTransform="translate(134.387 85.9733) rotate(-64.359) scale(20.1908 1.08525)">
<stop stop-color="white"/>
<stop offset="1"/>
</radialGradient>
<radialGradient id="paint7_radial_2_22" cx="0" cy="0" r="1" gradientUnits="userSpaceOnUse" gradientTransform="translate(-58.2832 -79.1043) rotate(-109.573) scale(34.7596 1.07687)">
<stop stop-color="white"/>
<stop offset="1"/>
</radialGradient>
<radialGradient id="paint8_radial_2_22" cx="0" cy="0" r="1" gradientUnits="userSpaceOnUse" gradientTransform="translate(-50.7527 31.2391) rotate(-154.44) scale(18.5477 1.30309)">
<stop stop-color="white"/>
<stop offset="1"/>
</radialGradient>
<radialGradient id="paint9_radial_2_22" cx="0" cy="0" r="1" gradientUnits="userSpaceOnUse" gradientTransform="translate(118.195 41.9102) rotate(160.451) scale(35.5413 0.76734)">
<stop stop-color="white"/>
<stop offset="1"/>
</radialGradient>
<radialGradient id="paint10_radial_2_22" cx="0" cy="0" r="1" gradientUnits="userSpaceOnUse" gradientTransform="translate(87.9356 95.7541) rotate(115.53) scale(18.0129 1.08476)">
<stop stop-color="white"/>
<stop offset="1"/>
</radialGradient>
<radialGradient id="paint11_radial_2_22" cx="0" cy="0" r="1" gradientUnits="userSpaceOnUse" gradientTransform="translate(11.5236 5.98237) rotate(70.4269) scale(34.7596 1.07687)">
<stop stop-color="white"/>
<stop offset="1"/>
</radialGradient>
<radialGradient id="paint12_radial_2_22" cx="0" cy="0" r="1" gradientUnits="userSpaceOnUse" gradientTransform="translate(55.4064 -62.1537) rotate(25.7099) scale(21.8367 1.30501)">
<stop stop-color="white"/>
<stop offset="1"/>
</radialGradient>
<radialGradient id="paint13_radial_2_22" cx="0" cy="0" r="1" gradientUnits="userSpaceOnUse" gradientTransform="translate(126.773 99.0724) rotate(-19.8852) scale(33.4366)">
<stop stop-color="white"/>
<stop offset="1"/>
</radialGradient>
<radialGradient id="paint14_radial_2_22" cx="0" cy="0" r="1" gradientUnits="userSpaceOnUse" gradientTransform="translate(126.773 99.0724) rotate(-19.8852) scale(16.5534)">
<stop stop-color="white"/>
<stop offset="1"/>
</radialGradient>
</defs>
</svg>
