<svg xmlns="http://www.w3.org/2000/svg" xmlns:xlink="http://www.w3.org/1999/xlink" viewBox="0 0 197.35 198.24"><defs><style>.cls-1{isolation:isolate;}.cls-2,.cls-51{mix-blend-mode:multiply;}.cls-3{fill:#3b2c21;}.cls-4{fill:url(#linear-gradient);}.cls-5{fill:#fff;opacity:0;}.cls-6{fill:#fbfaf9;opacity:0.02;}.cls-7{fill:#f7f6f3;opacity:0.05;}.cls-8{fill:#f3f1ed;opacity:0.07;}.cls-9{fill:#efede7;opacity:0.1;}.cls-10{fill:#ebe8e2;opacity:0.12;}.cls-11{fill:#e7e4dc;opacity:0.15;}.cls-12{fill:#e3dfd6;opacity:0.17;}.cls-13{fill:#dfdbd0;opacity:0.2;}.cls-14{fill:#dbd6ca;opacity:0.22;}.cls-15{fill:#d7d1c4;opacity:0.24;}.cls-16{fill:#d3cdbe;opacity:0.27;}.cls-17{fill:#cfc8b8;opacity:0.29;}.cls-18{fill:#cbc4b3;opacity:0.32;}.cls-19{fill:#c7bfad;opacity:0.34;}.cls-20{fill:#c3bba7;opacity:0.37;}.cls-21{fill:#bfb6a1;opacity:0.39;}.cls-22{fill:#bbb19b;opacity:0.41;}.cls-23{fill:#b7ad95;opacity:0.44;}.cls-24{fill:#b3a88f;opacity:0.46;}.cls-25{fill:#afa489;opacity:0.49;}.cls-26{fill:#ac9f84;opacity:0.51;}.cls-27{fill:#a89b7e;opacity:0.54;}.cls-28{fill:#a49678;opacity:0.56;}.cls-29{fill:#a09272;opacity:0.59;}.cls-30{fill:#9c8d6c;opacity:0.61;}.cls-31{fill:#988866;opacity:0.63;}.cls-32{fill:#948460;opacity:0.66;}.cls-33{fill:#907f5a;opacity:0.68;}.cls-34{fill:#8c7b55;opacity:0.71;}.cls-35{fill:#88764f;opacity:0.73;}.cls-36{fill:#847249;opacity:0.76;}.cls-37{fill:#806d43;opacity:0.78;}.cls-38{fill:#7c683d;opacity:0.8;}.cls-39{fill:#786437;opacity:0.83;}.cls-40{fill:#745f31;opacity:0.85;}.cls-41{fill:#705b2b;opacity:0.88;}.cls-42{fill:#6c5626;opacity:0.9;}.cls-43{fill:#685220;opacity:0.93;}.cls-44{fill:#644d1a;opacity:0.95;}.cls-45{fill:#604914;opacity:0.98;}.cls-46{fill:#5c440e;}.cls-47{fill:url(#linear-gradient-2);}.cls-48{fill:url(#linear-gradient-3);}.cls-49{fill:url(#linear-gradient-4);}.cls-50{mix-blend-mode:overlay;fill:url(#linear-gradient-5);}.cls-51{fill:#969696;}</style><linearGradient id="linear-gradient" x1="-1176.62" y1="503.47" x2="-1176.62" y2="332.57" gradientTransform="translate(469.01 1291.25) rotate(92.31)" gradientUnits="userSpaceOnUse"><stop offset="0" stop-color="#9d602a"/><stop offset="0.15" stop-color="#be7936"/><stop offset="0.27" stop-color="#d38a3d"/><stop offset="0.35" stop-color="#db9040"/><stop offset="0.36" stop-color="#dc9142"/><stop offset="0.43" stop-color="#e79d53"/><stop offset="0.48" stop-color="#eba159"/><stop offset="1" stop-color="#e07e2d"/></linearGradient><linearGradient id="linear-gradient-2" x1="-1102.94" y1="458.37" x2="-1250.84" y2="377.38" gradientTransform="translate(1340.99 225.97) rotate(25.41)" gradientUnits="userSpaceOnUse"><stop offset="0" stop-color="#fab15e"/><stop offset="0.04" stop-color="#f8af5d"/><stop offset="0.05" stop-color="#f1aa59"/><stop offset="0.06" stop-color="#e6a053"/><stop offset="0.07" stop-color="#d59249"/><stop offset="0.08" stop-color="#bf803d"/><stop offset="0.08" stop-color="#a46b2e"/><stop offset="0.09" stop-color="#9d652a"/><stop offset="0.09" stop-color="#9a6229"/><stop offset="0.11" stop-color="#935d26"/><stop offset="0.15" stop-color="#915b25"/><stop offset="0.16" stop-color="#8f5a24"/><stop offset="0.17" stop-color="#885521"/><stop offset="0.17" stop-color="#7b4d1c"/><stop offset="0.17" stop-color="#694114"/><stop offset="0.17" stop-color="#5c380e"/><stop offset="0.42" stop-color="#c77f40"/><stop offset="0.42" stop-color="#c88040"/><stop offset="0.48" stop-color="#dd964b"/><stop offset="0.54" stop-color="#eca653"/><stop offset="0.6" stop-color="#f5b058"/><stop offset="0.69" stop-color="#f8b359"/><stop offset="0.73" stop-color="#f6b158"/><stop offset="0.74" stop-color="#efac55"/><stop offset="0.75" stop-color="#e4a24f"/><stop offset="0.76" stop-color="#d39446"/><stop offset="0.76" stop-color="#bd823b"/><stop offset="0.77" stop-color="#a26c2d"/><stop offset="0.77" stop-color="#966227"/><stop offset="0.81" stop-color="#986328"/><stop offset="0.83" stop-color="#9f692b"/><stop offset="0.84" stop-color="#aa7232"/><stop offset="0.85" stop-color="#bb7f3a"/><stop offset="0.85" stop-color="#d19045"/><stop offset="0.86" stop-color="#de9a4c"/><stop offset="0.86" stop-color="#e3a04f"/><stop offset="0.87" stop-color="#efac55"/><stop offset="0.89" stop-color="#f5b358"/><stop offset="0.92" stop-color="#f7b559"/><stop offset="0.92" stop-color="#f7ba59"/><stop offset="0.92" stop-color="#f7c559"/><stop offset="0.92" stop-color="#f7cc59"/><stop offset="0.92" stop-color="#f7ce59"/><stop offset="0.94" stop-color="#facb62"/><stop offset="0.96" stop-color="#fec86b"/><stop offset="1" stop-color="#ffc76e"/></linearGradient><linearGradient id="linear-gradient-3" x1="-1131.94" y1="495.41" x2="-1219.81" y2="343.2" gradientTransform="translate(1340.99 225.97) rotate(25.41)" gradientUnits="userSpaceOnUse"><stop offset="0" stop-color="#ffc76e"/><stop offset="0.04" stop-color="#fec86b"/><stop offset="0.06" stop-color="#facb62"/><stop offset="0.08" stop-color="#f7ce59"/><stop offset="0.08" stop-color="#f7cc59"/><stop offset="0.08" stop-color="#f7c559"/><stop offset="0.08" stop-color="#f7ba59"/><stop offset="0.08" stop-color="#f7b559"/><stop offset="0.11" stop-color="#f5b358"/><stop offset="0.13" stop-color="#efac55"/><stop offset="0.14" stop-color="#e3a04f"/><stop offset="0.14" stop-color="#de9a4c"/><stop offset="0.15" stop-color="#d19045"/><stop offset="0.15" stop-color="#bb7f3a"/><stop offset="0.16" stop-color="#aa7232"/><stop offset="0.17" stop-color="#9f692b"/><stop offset="0.19" stop-color="#986328"/><stop offset="0.23" stop-color="#966227"/><stop offset="0.23" stop-color="#a26c2d"/><stop offset="0.24" stop-color="#bd823b"/><stop offset="0.24" stop-color="#d39446"/><stop offset="0.25" stop-color="#e4a24f"/><stop offset="0.26" stop-color="#efac55"/><stop offset="0.27" stop-color="#f6b158"/><stop offset="0.31" stop-color="#f8b359"/><stop offset="0.4" stop-color="#f5b058"/><stop offset="0.46" stop-color="#eca653"/><stop offset="0.52" stop-color="#dd964b"/><stop offset="0.58" stop-color="#c88040"/><stop offset="0.58" stop-color="#c77f40"/><stop offset="0.83" stop-color="#5c380e"/><stop offset="0.83" stop-color="#694114"/><stop offset="0.83" stop-color="#7b4d1c"/><stop offset="0.83" stop-color="#885521"/><stop offset="0.84" stop-color="#8f5a24"/><stop offset="0.85" stop-color="#915b25"/><stop offset="0.89" stop-color="#935d26"/><stop offset="0.91" stop-color="#9a6229"/><stop offset="0.91" stop-color="#9d652a"/><stop offset="0.92" stop-color="#a46b2e"/><stop offset="0.92" stop-color="#bf803d"/><stop offset="0.93" stop-color="#d59249"/><stop offset="0.94" stop-color="#e6a053"/><stop offset="0.95" stop-color="#f1aa59"/><stop offset="0.96" stop-color="#f8af5d"/><stop offset="1" stop-color="#fab15e"/></linearGradient><linearGradient id="linear-gradient-4" x1="-1225.04" y1="334.14" x2="-1128.19" y2="501.9" xlink:href="#linear-gradient-3"/><linearGradient id="linear-gradient-5" x1="-1243.5" y1="347.2" x2="-1106.41" y2="492.86" gradientTransform="translate(1340.99 225.97) rotate(25.41)" gradientUnits="userSpaceOnUse"><stop offset="0" stop-color="#ebebeb"/><stop offset="1" stop-color="#242424"/></linearGradient></defs><title>Ресурс 30</title><g class="cls-1"><g id="Слой_2" data-name="Слой 2"><g id="Слой_1-2" data-name="Слой 1"><g class="cls-2"><path class="cls-3" d="M187.37,142.57A97.47,97.47,0,1,1,141.15,12.71,97.46,97.46,0,0,1,187.37,142.57Z"/></g><circle class="cls-4" cx="98.78" cy="98.68" r="85.45" transform="translate(-30.75 150.83) rotate(-66.9)"/><g class="cls-2"><path class="cls-5" d="M61.06,171.46C20,152,2.78,102.42,22.55,60.79S91.62,1.23,132.66,20.72s58.28,69,38.51,110.67S102.1,191,61.06,171.46ZM137.43,10.67C90.92-11.42,35.05,8.91,12.64,56.09S9.77,159.41,56.28,181.51s102.39,1.76,124.79-45.42S183.94,32.76,137.43,10.67Z"/><path class="cls-6" d="M61.09,171.55C20,152,2.76,102.47,22.54,60.83S91.65,1.24,132.72,20.75s58.33,69.08,38.55,110.73S102.16,191.06,61.09,171.55ZM137.49,10.7C91-11.41,35,8.92,12.62,56.12S9.77,159.49,56.31,181.6s102.46,1.78,124.87-45.41S184,32.81,137.49,10.7Z"/><path class="cls-7" d="M61.12,171.64C20,152.12,2.74,102.52,22.53,60.87S91.68,1.26,132.78,20.79s58.38,69.12,38.59,110.78S102.22,191.17,61.12,171.64ZM137.56,10.73C91-11.4,35,8.94,12.61,56.15S9.76,159.57,56.34,181.7s102.53,1.79,125-45.42S184.14,32.86,137.56,10.73Z"/><path class="cls-8" d="M61.15,171.74C20,152.2,2.73,102.58,22.52,60.9S91.71,1.28,132.84,20.82,191.27,90,171.47,131.66,102.29,191.28,61.15,171.74Zm76.47-161C91-11.38,35,9,12.59,56.19S9.76,159.65,56.38,181.8s102.59,1.8,125-45.43S184.24,32.9,137.62,10.76Z"/><path class="cls-9" d="M61.19,171.83C20,152.28,2.71,102.63,22.51,60.94S91.74,1.3,132.9,20.86s58.48,69.19,38.68,110.89S102.35,191.38,61.19,171.83Zm76.49-161C91-11.37,35,9,12.57,56.22S9.76,159.73,56.41,181.89s102.66,1.82,125.1-45.42S184.33,33,137.68,10.79Z"/><path class="cls-10" d="M61.22,171.92C20,152.36,2.69,102.68,22.5,61S91.77,1.32,133,20.89s58.53,69.24,38.72,111S102.41,191.49,61.22,171.92Zm76.53-161.1C91.06-11.36,35,9,12.56,56.25S9.75,159.81,56.44,182s102.73,1.84,125.18-45.43S184.43,33,137.75,10.82Z"/><path class="cls-11" d="M61.25,172C20,152.43,2.68,102.74,22.5,61S91.8,1.34,133,20.92s58.58,69.28,38.76,111S102.48,191.6,61.25,172ZM137.81,10.85C91.09-11.34,35,9,12.54,56.29S9.75,159.9,56.47,182.09s102.8,1.85,125.26-45.44S184.53,33,137.81,10.85Z"/><path class="cls-12" d="M61.29,172.11C20,152.51,2.66,102.79,22.49,61.05S91.83,1.36,133.08,21s58.63,69.31,38.8,111S102.54,191.7,61.29,172.11ZM137.87,10.88C91.12-11.33,35,9,12.53,56.32S9.74,160,56.5,182.18s102.87,1.87,125.34-45.43S184.63,33.09,137.87,10.88Z"/><path class="cls-13" d="M61.32,172.2C20,152.59,2.64,102.84,22.48,61.09S91.86,1.38,133.14,21,191.82,90.35,172,132.1,102.6,191.81,61.32,172.2ZM137.93,10.91C91.14-11.32,35,9,12.51,56.35s-2.77,103.71,44,125.93S159.47,184.16,182,136.84,184.72,33.13,137.93,10.91Z"/><path class="cls-14" d="M61.35,172.29C20,152.67,2.63,102.9,22.47,61.12S91.89,1.4,133.21,21s58.72,69.4,38.88,111.17S102.67,191.92,61.35,172.29ZM138,10.94C91.17-11.3,35,9,12.5,56.39s-2.76,103.75,44.06,126,103,1.89,125.5-45.45S184.82,33.18,138,10.94Z"/><path class="cls-15" d="M61.38,172.39C20,152.75,2.61,103,22.46,61.16S91.92,1.42,133.27,21.06,192,90.49,172.19,132.28,102.73,192,61.38,172.39ZM138.06,11C91.2-11.29,35,9.06,12.48,56.42S9.73,160.22,56.59,182.47,159.67,184.38,182.17,137,184.92,33.23,138.06,11Z"/><path class="cls-16" d="M61.42,172.48C20,152.83,2.6,103,22.45,61.2S92,1.44,133.33,21.09s58.82,69.48,39,111.28S102.79,192.13,61.42,172.48ZM138.12,11C91.23-11.28,35,9.07,12.46,56.45S9.73,160.3,56.62,182.57s103.16,1.93,125.66-45.45S185,33.27,138.12,11Z"/><path class="cls-17" d="M61.45,172.57C20,152.9,2.58,103.06,22.44,61.24S92,1.46,133.39,21.12s58.87,69.52,39,111.34S102.86,192.24,61.45,172.57ZM138.18,11C91.26-11.26,35,9.09,12.45,56.49S9.73,160.38,56.65,182.67s103.23,1.94,125.74-45.46S185.11,33.32,138.18,11Z"/><path class="cls-18" d="M61.48,172.67C20,153,2.56,103.11,22.44,61.27S92,1.48,133.45,21.16s58.92,69.55,39.05,111.39S102.92,192.35,61.48,172.67ZM138.25,11.06C91.28-11.25,35,9.1,12.43,56.52S9.72,160.46,56.68,182.76s103.3,2,125.82-45.46S185.21,33.36,138.25,11.06Z"/><path class="cls-19" d="M61.51,172.76c-41.46-19.7-59-69.6-39.08-111.45S92,1.49,133.51,21.19s59,69.6,39.09,111.45S103,192.46,61.51,172.76Zm76.8-161.67C91.31-11.24,35,9.12,12.42,56.55s-2.7,104,44.3,126.31,103.36,2,125.89-45.46S185.31,33.41,138.31,11.09Z"/><path class="cls-20" d="M61.55,172.85c-41.5-19.71-59-69.63-39.13-111.5S92.07,1.51,133.57,21.23s59,69.63,39.13,111.5S103.05,192.56,61.55,172.85ZM138.37,11.12c-47-22.34-103.43-2-126,45.47S9.71,160.62,56.75,183s103.43,2,126-45.47S185.4,33.46,138.37,11.12Z"/><path class="cls-21" d="M61.58,172.94C20.05,153.22,2.51,103.27,22.41,61.38S92.1,1.53,133.63,21.26,192.7,90.93,172.8,132.82,103.11,192.67,61.58,172.94ZM138.44,11.15C91.37-11.21,34.93,9.15,12.38,56.62S9.71,160.7,56.78,183.06s103.5,2,126.05-45.48S185.5,33.5,138.44,11.15Z"/><path class="cls-22" d="M61.61,173C20.05,153.3,2.5,103.32,22.4,61.42S92.13,1.55,133.69,21.29,192.81,91,172.9,132.91,103.17,192.78,61.61,173ZM138.5,11.18C91.4-11.2,34.93,9.16,12.37,56.65S9.71,160.78,56.81,183.15s103.57,2,126.13-45.47S185.6,33.55,138.5,11.18Z"/><path class="cls-23" d="M61.65,173.13C20.06,153.37,2.48,103.38,22.39,61.46S92.16,1.57,133.75,21.33,192.92,91.08,173,133,103.24,192.89,61.65,173.13ZM138.56,11.21C91.43-11.18,34.92,9.18,12.35,56.69S9.7,160.86,56.84,183.25s103.64,2,126.21-45.48S185.7,33.6,138.56,11.21Z"/><path class="cls-24" d="M61.68,173.22C20.06,153.45,2.47,103.43,22.39,61.49s69.8-59.9,111.42-40.13S193,91.15,173.11,133.09,103.3,193,61.68,173.22Zm76.94-162C91.45-11.17,34.91,9.19,12.34,56.72S9.7,160.94,56.87,183.35s103.71,2,126.29-45.49S185.79,33.64,138.62,11.24Z"/><path class="cls-25" d="M61.71,173.31C20.06,153.53,2.45,103.48,22.38,61.53S92.22,1.61,133.88,21.39s59.26,69.84,39.33,111.79S103.36,193.1,61.71,173.31Zm77-162C91.48-11.16,34.9,9.21,12.32,56.75S9.7,161,56.9,183.44,160.68,185.5,183.27,138,185.89,33.69,138.69,11.27Z"/><path class="cls-26" d="M61.74,173.41C20.06,153.61,2.43,103.54,22.37,61.57S92.25,1.63,133.94,21.43s59.31,69.87,39.37,111.84S103.43,193.21,61.74,173.41Zm77-162.11C91.51-11.14,34.9,9.22,12.3,56.79S9.69,161.1,56.93,183.54s103.85,2.07,126.45-45.49S186,33.74,138.75,11.3Z"/><path class="cls-27" d="M61.78,173.5C20.07,153.69,2.42,103.59,22.36,61.61S92.28,1.65,134,21.46s59.36,69.91,39.42,111.9S103.49,193.31,61.78,173.5Zm77-162.17C91.54-11.13,34.89,9.24,12.29,56.82S9.69,161.18,57,183.64s103.92,2.08,126.53-45.5S186.09,33.78,138.81,11.33Z"/><path class="cls-28" d="M61.81,173.59C20.07,153.77,2.4,103.64,22.35,61.64s70-60,111.71-40.14,59.41,70,39.46,112S103.55,193.42,61.81,173.59ZM138.87,11.36c-47.3-22.48-104-2.11-126.6,45.49S9.69,161.26,57,183.73s104,2.1,126.61-45.5S186.18,33.83,138.87,11.36Z"/><path class="cls-29" d="M61.84,173.69c-41.77-19.85-59.46-70-39.5-112s70-60,111.78-40.15,59.46,70,39.5,112S103.62,193.53,61.84,173.69Zm77.1-162.3C91.59-11.1,34.88,9.27,12.26,56.89S9.68,161.34,57,183.83s104.06,2.12,126.68-45.5S186.28,33.87,138.94,11.39Z"/><path class="cls-30" d="M61.88,173.78c-41.81-19.86-59.51-70-39.55-112.06s70.05-60,111.85-40.16,59.51,70,39.54,112.07S103.68,193.64,61.88,173.78ZM139,11.42C91.62-11.09,34.87,9.28,12.24,56.92s-2.56,104.5,44.82,127,104.13,2.13,126.75-45.51S186.38,33.92,139,11.42Z"/><path class="cls-31" d="M61.91,173.87C20.07,154,2.35,103.8,22.33,61.75s70.08-60,111.91-40.15,59.56,70.07,39.58,112.12S103.74,193.74,61.91,173.87ZM139.06,11.44C91.65-11.08,34.86,9.3,12.23,57S9.67,161.5,57.09,184s104.2,2.15,126.83-45.51S186.48,34,139.06,11.44Z"/><path class="cls-32" d="M61.94,174c-41.86-19.88-59.6-70.1-39.62-112.17s70.12-60,112-40.16,59.61,70.11,39.63,112.18S103.81,193.85,61.94,174ZM139.13,11.47C91.68-11.06,34.86,9.31,12.21,57S9.67,161.58,57.12,184.12,161.39,186.28,184,138.61,186.57,34,139.13,11.47Z"/><path class="cls-33" d="M62,174.06C20.08,154.16,2.32,103.91,22.31,61.83S92.47,1.76,134.36,21.66,194,91.81,174,133.89,103.87,194,62,174.06ZM139.19,11.5C91.71-11,34.85,9.33,12.19,57s-2.52,104.64,45,127.2,104.34,2.17,127-45.52S186.67,34.06,139.19,11.5Z"/><path class="cls-34" d="M62,174.15C20.08,154.23,2.3,104,22.3,61.86S92.5,1.78,134.42,21.7,194.13,91.89,174.13,134,103.93,194.07,62,174.15ZM139.25,11.53C91.73-11,34.84,9.34,12.18,57.06s-2.52,104.68,45,127.25,104.41,2.19,127.07-45.52S186.77,34.11,139.25,11.53Z"/><path class="cls-35" d="M62,174.24A84.26,84.26,0,0,1,22.29,61.9c20-42.11,70.24-60.1,112.19-40.17A84.42,84.42,0,0,1,62,174.24ZM139.31,11.56C91.76-11,34.83,9.36,12.16,57.09S9.66,161.82,57.21,184.41s104.48,2.21,127.15-45.52S186.87,34.15,139.31,11.56Z"/><path class="cls-36" d="M62.07,174.34a84.45,84.45,0,1,1,112.27-40.18A84.32,84.32,0,0,1,62.07,174.34ZM139.38,11.59C91.79-11,34.83,9.37,12.15,57.12S9.66,161.9,57.24,184.51,161.79,186.73,184.47,139,187,34.2,139.38,11.59Z"/><path class="cls-37" d="M62.11,174.43a84.49,84.49,0,1,1,112.33-40.18A84.37,84.37,0,0,1,62.11,174.43ZM139.44,11.62C91.82-11,34.82,9.39,12.13,57.16S9.65,162,57.27,184.6a95.6,95.6,0,0,0,127.31-45.53C207.27,91.3,187.06,34.24,139.44,11.62Z"/><path class="cls-38" d="M62.14,174.52a84.52,84.52,0,1,1,112.4-40.18A84.4,84.4,0,0,1,62.14,174.52ZM139.5,11.65a95.79,95.79,0,1,0,45.19,127.52A95.67,95.67,0,0,0,139.5,11.65Z"/><path class="cls-39" d="M62.17,174.61a84.55,84.55,0,1,1,112.47-40.18A84.44,84.44,0,0,1,62.17,174.61ZM139.56,11.68A95.83,95.83,0,1,0,184.8,139.26,95.71,95.71,0,0,0,139.56,11.68Z"/><path class="cls-40" d="M62.2,174.71a84.59,84.59,0,1,1,112.54-40.19A84.5,84.5,0,0,1,62.2,174.71Zm77.43-163a95.86,95.86,0,1,0,45.28,127.64A95.77,95.77,0,0,0,139.63,11.71Z"/><path class="cls-41" d="M62.24,174.8a84.62,84.62,0,1,1,112.61-40.19A84.55,84.55,0,0,1,62.24,174.8ZM139.69,11.74A95.9,95.9,0,1,0,185,139.44,95.82,95.82,0,0,0,139.69,11.74Z"/><path class="cls-42" d="M62.27,174.89A84.65,84.65,0,1,1,175,134.7,84.59,84.59,0,0,1,62.27,174.89ZM139.75,11.77a95.94,95.94,0,1,0,45.38,127.77A95.87,95.87,0,0,0,139.75,11.77Z"/><path class="cls-43" d="M62.3,175a84.69,84.69,0,1,1,112.75-40.2A84.65,84.65,0,0,1,62.3,175ZM139.82,11.8a96,96,0,1,0,45.42,127.83A95.94,95.94,0,0,0,139.82,11.8Z"/><path class="cls-44" d="M62.34,175.08a84.71,84.71,0,1,1,112.81-40.2A84.68,84.68,0,0,1,62.34,175.08ZM139.88,11.83a96,96,0,1,0,45.47,127.89A96,96,0,0,0,139.88,11.83Z"/><path class="cls-45" d="M62.37,175.17A84.75,84.75,0,1,1,175.26,135,84.73,84.73,0,0,1,62.37,175.17ZM139.94,11.86a96,96,0,1,0,45.52,128A96,96,0,0,0,139.94,11.86Z"/><path class="cls-46" d="M62.4,175.26a84.78,84.78,0,1,1,113-40.2A84.78,84.78,0,0,1,62.4,175.26ZM140,11.89a96.08,96.08,0,1,0,45.57,128A96.07,96.07,0,0,0,140,11.89Z"/></g><path class="cls-47" d="M139.35,13.27a94.56,94.56,0,1,0,44.85,126A94.56,94.56,0,0,0,139.35,13.27ZM63,174.05a83.44,83.44,0,1,1,111.17-39.57A83.44,83.44,0,0,1,63,174.05Z"/><path class="cls-48" d="M141.06,9.66A98.55,98.55,0,1,0,187.8,141,98.55,98.55,0,0,0,141.06,9.66ZM61.47,177.23A87,87,0,1,1,177.33,136,87,87,0,0,1,61.47,177.23Z"/><path class="cls-49" d="M140.33,11.21a96.84,96.84,0,1,0,45.92,129A96.85,96.85,0,0,0,140.33,11.21ZM62.11,175.87A85.45,85.45,0,1,1,176,135.35,85.46,85.46,0,0,1,62.11,175.87Z"/><path class="cls-50" d="M187.56,140.83A98.53,98.53,0,1,1,140.83,9.55,98.53,98.53,0,0,1,187.56,140.83Z"/><polygon class="cls-51" points="116.95 61.14 117.41 92.26 143.31 109.52 113.86 119.58 105.45 149.55 86.78 124.65 55.69 125.91 73.6 100.46 62.79 71.27 92.53 80.44 116.95 61.14"/></g></g></g></svg>