<svg width="993" height="993" viewBox="0 0 993 993" fill="none" xmlns="http://www.w3.org/2000/svg">
<g clip-path="url(#clip0_2_2)">
<g style="mix-blend-mode:multiply">
<g style="mix-blend-mode:multiply">
<path d="M306.7 895.8C86.12 791 -7.75003 527.27 97 306.7C201.75 86.13 465.55 -7.74996 686.12 97C906.69 201.75 1000.57 465.53 895.8 686.1C791.03 906.67 527.27 1000.57 306.7 895.8ZM704 59.33C462.63 -55.33 174 47.4 59.33 288.8C-55.34 530.2 47.41 818.8 288.8 933.49C530.19 1048.18 818.8 945.41 933.49 704.02C1048.18 462.63 945.42 174 704 59.33Z" fill="#4A4A4A"/>
</g>
</g>
<path d="M704 59.33C462.63 -55.33 174 47.4 59.33 288.8C-55.34 530.2 47.41 818.8 288.8 933.49C530.19 1048.18 818.8 945.41 933.49 704.02C1048.18 462.63 945.42 174 704 59.33ZM306.7 895.8C86.12 791 -7.75003 527.27 97 306.7C201.75 86.13 465.55 -7.74996 686.12 97C906.69 201.75 1000.57 465.53 895.8 686.1C791.03 906.67 527.27 1000.57 306.7 895.8Z" fill="url(#paint0_linear_2_2)"/>
<path d="M709.35 48.12C461.77 -69.48 165.72 35.88 48.12 283.47C-69.48 531.06 35.89 827.09 283.47 944.7C531.05 1062.31 827.1 956.93 944.7 709.35C1062.3 461.77 956.94 165.72 709.35 48.12ZM301.83 906C75.6 798.54 -20.69 528 86.83 301.79C194.35 75.58 464.76 -20.69 691 86.77C917.24 194.23 1013.52 464.77 906.06 690.99C798.6 917.21 528.07 1013.51 301.83 906Z" fill="url(#paint1_linear_2_2)"/>
<path d="M706.14 54.88C462.29 -60.95 170.71 42.83 54.88 286.68C-60.95 530.53 42.83 822.11 286.68 937.94C530.53 1053.77 822.11 949.94 937.94 706.14C1053.77 462.34 950 170.71 706.14 54.88ZM304.76 899.88C81.94 794 -12.89 527.59 93 304.76C198.89 81.93 465.23 -12.89 688.06 93C910.89 198.89 1005.72 465.28 899.87 688.11C794.02 910.94 527.59 1005.71 304.76 899.87V899.88Z" fill="url(#paint2_linear_2_2)"/>
<path style="mix-blend-mode:color-dodge" d="M687.38 92.52C671.24 84.85 662.38 69.62 667.65 58.52C672.92 47.42 690.31 44.69 706.44 52.36C722.57 60.03 731.44 75.26 726.17 86.36C720.9 97.46 703.52 100.18 687.38 92.52Z" fill="url(#paint3_radial_2_2)"/>
<path style="mix-blend-mode:color-dodge" d="M707.28 88.65C705.895 91.5659 703.676 94.0055 700.904 95.6602C698.132 97.3149 694.932 98.1104 691.708 97.9461C688.484 97.7817 685.381 96.6649 682.792 94.7369C680.203 92.8089 678.243 90.1564 677.162 87.1147C676.08 84.0731 675.925 80.779 676.716 77.6492C677.507 74.5194 679.208 71.6944 681.605 69.5316C684.001 67.3688 686.985 65.9653 690.18 65.4986C693.374 65.032 696.635 65.5232 699.55 66.91C701.486 67.8283 703.223 69.1195 704.66 70.7097C706.096 72.2998 707.206 74.1577 707.924 76.1769C708.641 78.1962 708.954 80.3373 708.844 82.4776C708.733 84.6178 708.202 86.7153 707.28 88.65V88.65Z" fill="url(#paint4_radial_2_2)"/>
<path style="mix-blend-mode:color-dodge" d="M571.94 58.83C558.73 52.56 550.22 40.48 551.26 29.46C552.53 16 567.43 8.59003 584.48 12.92C587.211 13.6146 589.867 14.5758 592.41 15.79C605.63 22.06 614.13 34.14 613.09 45.16C611.82 58.61 596.92 66 579.88 61.7C577.145 61.0073 574.486 60.0459 571.94 58.83Z" fill="url(#paint5_radial_2_2)"/>
<path style="mix-blend-mode:color-dodge" d="M449.56 51.1C442.27 47.64 437.16 40.89 436.21 33.5C434.74 22.04 443.44 12.37 455.62 11.94C459.55 11.8224 463.452 12.6452 467 14.34C474.29 17.8 479.41 24.54 480.36 31.94C481.83 43.4 473.12 53.07 460.95 53.49C457.017 53.615 453.111 52.7955 449.56 51.1V51.1Z" fill="url(#paint6_radial_2_2)"/>
<path style="mix-blend-mode:color-dodge" d="M331.31 77.41C328.981 76.3056 326.897 74.7467 325.18 72.8251C323.462 70.9034 322.147 68.6576 321.31 66.22C319.586 61.2651 319.877 55.831 322.122 51.089C324.367 46.3471 328.385 42.677 333.31 40.87C335.731 39.9864 338.303 39.5936 340.877 39.7146C343.451 39.8356 345.975 40.4679 348.302 41.5746C350.629 42.6814 352.713 44.2405 354.431 46.1609C356.149 48.0813 357.468 50.3246 358.31 52.76C360.021 57.7154 359.723 63.1439 357.48 67.8824C355.237 72.6208 351.227 76.2922 346.31 78.11C343.889 78.9954 341.315 79.3895 338.74 79.2693C336.164 79.1491 333.638 78.517 331.31 77.41Z" fill="url(#paint7_radial_2_2)"/>
<path style="mix-blend-mode:color-dodge" d="M212.26 144.22C208.581 142.385 205.674 139.301 204.06 135.52C201.25 129.39 200.91 121.52 203.06 113.29C205.201 105.158 209.568 97.7853 215.67 92C223.54 84.67 232.9 82.25 240.08 85.66C243.763 87.4983 246.672 90.5852 248.29 94.37C254.09 107.01 248.88 126.51 236.68 137.85C228.8 145.21 219.45 147.64 212.26 144.22Z" fill="url(#paint8_radial_2_2)"/>
<path style="mix-blend-mode:color-dodge" d="M133.42 218.4C131.954 217.689 130.605 216.758 129.42 215.64C127.541 213.77 126.064 211.534 125.082 209.071C124.1 206.608 123.633 203.97 123.71 201.32C123.733 195.442 125.718 189.741 129.35 185.12C135.53 177.19 145.14 174.12 152.73 177.77C154.2 178.478 155.55 179.413 156.73 180.54C164.31 187.69 164.34 201.38 156.8 211.06C150.63 219 141 222 133.42 218.4Z" fill="url(#paint9_radial_2_2)"/>
<path style="mix-blend-mode:color-dodge" d="M60 326C48.14 320.37 44.74 302.67 52.4 286.53C60.06 270.39 75.95 261.85 87.8 267.53C99.65 273.21 103.05 290.86 95.39 307C87.73 323.14 71.87 331.63 60 326Z" fill="url(#paint10_radial_2_2)"/>
<path style="mix-blend-mode:color-dodge" d="M30.66 434.15C22.76 430.4 18.94 420.5 21.38 410.08C22.7801 403.982 26.1334 398.508 30.93 394.49C35.64 390.59 41.12 388.8 46.35 389.49C48.0454 389.693 49.6968 390.169 51.24 390.9C59.14 394.66 62.96 404.55 60.52 414.97C59.1219 421.053 55.7799 426.516 51 430.53C46.29 434.43 40.81 436.22 35.58 435.53C33.877 435.335 32.2161 434.869 30.66 434.15V434.15Z" fill="url(#paint11_radial_2_2)"/>
<path style="mix-blend-mode:color-dodge" d="M25.68 553.39C19.48 550.45 15.52 543.89 15.34 536.27C15.2298 530.483 17.1552 524.842 20.78 520.33C24.1678 515.907 29.1267 512.957 34.63 512.09C38.0334 511.574 41.5135 512.078 44.63 513.54C50.84 516.54 54.8 523.05 54.98 530.67C55.26 542.46 46.61 553.31 35.69 554.85C32.2824 555.362 28.7993 554.854 25.68 553.39V553.39Z" fill="url(#paint12_radial_2_2)"/>
<path style="mix-blend-mode:color-dodge" d="M48.53 673.21C45.92 671.963 43.5957 670.191 41.7028 668.004C39.8099 665.816 38.3893 663.262 37.53 660.5C35.7445 654.722 36.1922 648.484 38.7845 643.019C41.3769 637.555 45.9251 633.262 51.53 630.99C54.212 629.901 57.0913 629.382 59.9847 629.466C62.8781 629.55 65.7225 630.235 68.3369 631.477C70.9514 632.72 73.2789 634.492 75.1714 636.683C77.0639 638.873 78.4801 641.433 79.33 644.2C81.115 649.977 80.6669 656.214 78.0745 661.676C75.4821 667.139 70.9341 671.43 65.33 673.7C62.6469 674.78 59.7697 675.293 56.8788 675.209C53.9879 675.125 51.1456 674.444 48.53 673.21V673.21Z" fill="url(#paint13_radial_2_2)"/>
<path style="mix-blend-mode:color-dodge" d="M97.9 783.39C94.0757 781.561 90.8148 778.735 88.46 775.21C84.8472 769.786 83.5311 763.152 84.8 756.76C86.0239 750.299 89.7052 744.563 95.07 740.76C98.5344 738.262 102.603 736.733 106.855 736.333C111.107 735.932 115.39 736.673 119.26 738.48C123.082 740.309 126.342 743.13 128.7 746.65C136.15 757.78 133.18 773.24 122.09 781.11C118.626 783.608 114.557 785.137 110.305 785.537C106.052 785.938 101.77 785.197 97.9 783.39Z" fill="url(#paint14_radial_2_2)"/>
<path style="mix-blend-mode:color-dodge" d="M185.89 875.69C183.346 874.479 180.919 873.036 178.64 871.38C164.45 861.04 160.53 845.38 169.9 836.38C177.59 829.03 192.18 828.29 205.4 834.56C207.942 835.775 210.368 837.217 212.65 838.87C226.84 849.21 230.76 864.87 221.38 873.87C213.7 881.22 199.1 882 185.89 875.69Z" fill="url(#paint15_radial_2_2)"/>
<path style="mix-blend-mode:color-dodge" d="M286.57 940.55C270.43 932.89 261.9 916.97 267.57 905.06C273.24 893.15 290.95 889.71 307.09 897.37C323.23 905.03 331.75 920.96 326.09 932.86C320.43 944.76 302.7 948.22 286.57 940.55Z" fill="url(#paint16_radial_2_2)"/>
<path style="mix-blend-mode:color-dodge" d="M403.64 978.6C391.8 973 384.52 961.42 386 950.51C386.414 947.334 387.575 944.301 389.388 941.661C391.201 939.02 393.615 936.847 396.43 935.32C402.31 931.97 409.67 931.07 417.15 932.79C419.614 933.356 422.008 934.191 424.29 935.28C436.13 940.9 443.41 952.45 441.98 963.36C440.24 976.67 426.28 984.63 410.84 981.09C408.356 980.527 405.941 979.692 403.64 978.6V978.6Z" fill="url(#paint17_radial_2_2)"/>
<path style="mix-blend-mode:color-dodge" d="M525.71 985.59C521.592 983.687 518.024 980.771 515.339 977.114C512.654 973.457 510.941 969.179 510.36 964.68C509.973 961.452 510.275 958.179 511.245 955.076C512.216 951.974 513.833 949.112 515.99 946.68C518.207 944.203 520.9 942.198 523.908 940.784C526.916 939.37 530.178 938.576 533.5 938.45C538.086 938.227 542.655 939.145 546.8 941.12C550.914 943.02 554.48 945.932 557.164 949.583C559.849 953.234 561.564 957.506 562.15 962C563.67 975.73 553.29 987.49 539.02 988.22C534.434 988.456 529.861 987.552 525.71 985.59V985.59Z" fill="url(#paint18_radial_2_2)"/>
<path style="mix-blend-mode:color-dodge" d="M643.41 960.57C637.272 957.685 632.531 952.48 630.23 946.1C629.084 942.968 628.573 939.639 628.727 936.308C628.882 932.977 629.698 929.709 631.129 926.697C632.56 923.684 634.576 920.987 637.061 918.762C639.545 916.538 642.448 914.83 645.6 913.74C652.006 911.518 659.029 911.903 665.154 914.812C671.278 917.721 676.014 922.921 678.34 929.29C679.481 932.42 679.989 935.746 679.834 939.075C679.679 942.403 678.865 945.667 677.437 948.678C676.01 951.689 673.999 954.386 671.52 956.613C669.042 958.84 666.146 960.552 663 961.65C656.585 963.901 649.539 963.513 643.41 960.57V960.57Z" fill="url(#paint19_radial_2_2)"/>
<path style="mix-blend-mode:color-dodge" d="M750.27 906C746.258 904.102 742.811 901.19 740.27 897.55C738.38 894.844 737.045 891.79 736.342 888.565C735.639 885.34 735.581 882.007 736.173 878.76C736.764 875.513 737.992 872.414 739.787 869.644C741.582 866.874 743.908 864.487 746.63 862.62C752.157 858.854 758.949 857.425 765.526 858.644C772.102 859.863 777.93 863.633 781.74 869.13C783.622 871.832 784.952 874.879 785.653 878.097C786.354 881.314 786.413 884.638 785.826 887.878C785.239 891.118 784.017 894.211 782.231 896.977C780.445 899.744 778.131 902.131 775.42 904C771.767 906.5 767.524 908 763.111 908.351C758.699 908.702 754.272 907.891 750.27 906V906Z" fill="url(#paint20_radial_2_2)"/>
<path style="mix-blend-mode:color-dodge" d="M840.44 826.21C838.555 825.303 836.843 824.075 835.38 822.58C825.98 812.99 826.84 793.69 837.29 779.58C845.86 767.99 858.59 763.1 868.29 767.69C870.178 768.591 871.892 769.82 873.35 771.32C882.75 780.9 881.89 800.2 871.44 814.32C862.82 825.91 850.1 830.79 840.44 826.21Z" fill="url(#paint21_radial_2_2)"/>
<path style="mix-blend-mode:color-dodge" d="M904.91 725.33C892.91 719.63 889.38 701.86 897.04 685.72C904.7 669.58 920.71 661.1 932.71 666.8C944.71 672.5 948.25 690.27 940.58 706.41C932.91 722.55 916.92 731 904.91 725.33Z" fill="url(#paint22_radial_2_2)"/>
<path style="mix-blend-mode:color-dodge" d="M942.3 611.66C932.83 607.16 928.73 594.28 932.35 580.34C936.76 563.34 951.05 550.43 964.21 551.55C966.259 551.721 968.261 552.26 970.12 553.14C979.59 557.64 983.69 570.51 980.12 584.45C978.039 592.593 973.645 599.959 967.47 605.66C961.47 611.1 954.63 613.8 948.26 613.25C946.194 613.083 944.175 612.545 942.3 611.66V611.66Z" fill="url(#paint23_radial_2_2)"/>
<path style="mix-blend-mode:color-dodge" d="M950.85 484.19C943.07 480.49 938.14 472.19 938 462.43C937.919 455.018 940.39 447.804 945 442C949.273 436.341 955.541 432.522 962.53 431.32C966.788 430.635 971.153 431.245 975.06 433.07C982.84 436.77 987.76 445.07 987.91 454.83C988.13 469.89 977.12 483.83 963.35 485.92C959.104 486.605 954.75 486.003 950.85 484.19V484.19Z" fill="url(#paint24_radial_2_2)"/>
<path style="mix-blend-mode:color-dodge" d="M926.65 362.57C923.653 361.147 920.977 359.129 918.783 356.64C916.59 354.151 914.925 351.242 913.89 348.09C911.762 341.592 912.21 334.525 915.143 328.348C918.076 322.172 923.269 317.357 929.65 314.9C932.747 313.71 936.054 313.162 939.37 313.289C942.685 313.416 945.941 314.215 948.938 315.639C951.935 317.062 954.612 319.08 956.806 321.569C959 324.058 960.665 326.968 961.7 330.12C963.828 336.618 963.38 343.685 960.447 349.862C957.514 356.038 952.321 360.853 945.94 363.31C942.842 364.501 939.535 365.049 936.219 364.922C932.903 364.795 929.647 363.994 926.65 362.57V362.57Z" fill="url(#paint25_radial_2_2)"/>
<path style="mix-blend-mode:color-dodge" d="M873 252.74C868.984 250.833 865.511 247.948 862.9 244.35C860.974 241.735 859.592 238.76 858.836 235.601C858.08 232.442 857.966 229.164 858.5 225.96C859.025 222.805 860.203 219.795 861.958 217.121C863.712 214.447 866.005 212.168 868.69 210.43C872.41 208.062 876.676 206.687 881.079 206.437C885.482 206.187 889.875 207.069 893.84 209C897.861 210.908 901.338 213.796 903.95 217.4C912.07 228.66 909.48 243.87 898.16 251.32C894.436 253.684 890.169 255.055 885.765 255.304C881.361 255.552 876.967 254.67 873 252.74V252.74Z" fill="url(#paint26_radial_2_2)"/>
<path style="mix-blend-mode:color-dodge" d="M787.29 159.05C784.743 157.842 782.315 156.395 780.04 154.73C765.88 144.35 762.04 128.46 771.5 119.32C779.26 111.83 793.9 110.98 807.12 117.25C809.662 118.462 812.086 119.909 814.36 121.57C828.53 131.95 832.36 147.84 822.9 156.98C815.15 164.48 800.5 165.33 787.29 159.05Z" fill="url(#paint27_radial_2_2)"/>
<path style="mix-blend-mode:screen" d="M594.55 48C593.967 51.1747 592.455 54.1052 590.206 56.4208C587.957 58.7364 585.072 60.3332 581.916 61.0091C578.76 61.685 575.474 61.4098 572.474 60.2182C569.474 59.0266 566.895 56.9721 565.063 54.3147C563.23 51.6572 562.227 48.5161 562.18 45.2885C562.133 42.061 563.045 38.892 564.799 36.1823C566.553 33.4726 569.071 31.3439 572.035 30.0655C574.999 28.787 578.275 28.4162 581.45 29C585.707 29.7827 589.478 32.224 591.935 35.7872C594.391 39.3503 595.332 43.7433 594.55 48Z" fill="url(#paint28_radial_2_2)"/>
<path style="mix-blend-mode:screen" d="M475.14 37.9C475.391 41.1163 474.682 44.3346 473.105 47.1486C471.527 49.9625 469.151 52.2457 466.276 53.7098C463.401 55.1739 460.157 55.7533 456.954 55.3746C453.75 54.9959 450.73 53.6763 448.276 51.5824C445.822 49.4884 444.044 46.7142 443.166 43.61C442.287 40.5058 442.349 37.211 443.342 34.1418C444.336 31.0725 446.217 28.3666 448.747 26.3657C451.278 24.3648 454.344 23.1588 457.56 22.9C459.7 22.7278 461.853 22.9794 463.895 23.6405C465.937 24.3016 467.829 25.3591 469.462 26.7524C471.095 28.1458 472.437 29.8477 473.412 31.7606C474.386 33.6735 474.973 35.7598 475.14 37.9V37.9Z" fill="url(#paint29_radial_2_2)"/>
<path style="mix-blend-mode:screen" d="M357.18 59.06C358.261 62.1011 358.416 65.3944 357.625 68.5235C356.834 71.6526 355.133 74.477 352.738 76.6396C350.342 78.8022 347.359 80.2059 344.165 80.6732C340.972 81.1405 337.711 80.6504 334.796 79.265C331.882 77.8795 329.443 75.6608 327.789 72.8895C326.135 70.1181 325.339 66.9185 325.503 63.6952C325.668 60.4719 326.784 57.3697 328.711 54.7807C330.638 52.1917 333.289 50.2322 336.33 49.15C340.409 47.701 344.897 47.9309 348.806 49.7891C352.716 51.6474 355.728 54.982 357.18 59.06V59.06Z" fill="url(#paint30_radial_2_2)"/>
<path style="mix-blend-mode:screen" d="M248.72 110C250.553 112.656 251.557 115.795 251.606 119.022C251.655 122.248 250.746 125.417 248.995 128.127C247.244 130.837 244.728 132.967 241.766 134.248C238.805 135.529 235.53 135.904 232.355 135.324C229.181 134.744 226.25 133.236 223.932 130.991C221.615 128.746 220.015 125.864 219.335 122.709C218.654 119.555 218.925 116.27 220.111 113.269C221.297 110.268 223.347 107.686 226 105.85C227.764 104.629 229.751 103.768 231.848 103.316C233.945 102.864 236.11 102.83 238.22 103.215C240.33 103.6 242.344 104.398 244.146 105.562C245.947 106.727 247.502 108.235 248.72 110V110Z" fill="url(#paint31_radial_2_2)"/>
<path style="mix-blend-mode:screen" d="M154.14 190.84C155.899 192.339 157.175 194.326 157.806 196.55C158.436 198.773 158.393 201.134 157.683 203.333C156.972 205.533 155.625 207.472 153.813 208.906C152 210.34 149.803 211.205 147.499 211.391C145.195 211.577 142.888 211.075 140.869 209.95C138.85 208.825 137.209 207.127 136.155 205.07C135.101 203.013 134.681 200.689 134.947 198.393C135.213 196.097 136.154 193.932 137.65 192.17C139.661 189.807 142.527 188.34 145.62 188.091C148.712 187.841 151.777 188.83 154.14 190.84Z" fill="url(#paint32_radial_2_2)"/>
<path style="mix-blend-mode:screen" d="M88.69 285.69C91.6048 287.076 94.0433 289.295 95.6972 292.066C97.3511 294.837 98.1461 298.037 97.9818 301.26C97.8174 304.483 96.7011 307.586 94.7738 310.174C92.8466 312.763 90.1951 314.723 87.1545 315.805C84.1138 316.887 80.8207 317.043 77.6913 316.253C74.5619 315.464 71.7368 313.765 69.5732 311.37C67.4096 308.975 66.0046 305.992 65.5359 302.799C65.0672 299.606 65.5559 296.346 66.94 293.43C67.8595 291.493 69.1515 289.757 70.7423 288.319C72.3332 286.882 74.1916 285.772 76.2114 285.054C78.2312 284.335 80.3729 284.021 82.514 284.13C84.6551 284.24 86.7538 284.77 88.69 285.69V285.69Z" fill="url(#paint33_radial_2_2)"/>
<path style="mix-blend-mode:screen" d="M47.36 402.09C49.808 402.542 52.067 403.71 53.8515 405.445C55.6361 407.181 56.866 409.407 57.3859 411.841C57.9058 414.276 57.6923 416.81 56.7724 419.123C55.8526 421.436 54.2676 423.425 52.2178 424.837C50.1681 426.25 47.7455 427.023 45.2564 427.059C42.7673 427.095 40.3233 426.393 38.2334 425.04C36.1434 423.688 34.5014 421.746 33.5147 419.461C32.528 417.175 32.241 414.649 32.69 412.2C32.9884 410.572 33.6047 409.02 34.5037 407.631C35.4027 406.241 36.5668 405.043 37.9292 404.104C39.2917 403.165 40.8259 402.504 42.4441 402.158C44.0623 401.813 45.7328 401.79 47.36 402.09V402.09Z" fill="url(#paint34_radial_2_2)"/>
<path style="mix-blend-mode:screen" d="M37.94 517.84C41.1567 517.589 44.3755 518.298 47.1898 519.876C50.004 521.454 52.2874 523.83 53.7514 526.705C55.2154 529.581 55.7943 532.825 55.415 536.029C55.0356 539.233 53.7151 542.253 51.6201 544.707C49.5252 547.161 46.75 548.939 43.645 549.816C40.5401 550.693 37.2448 550.63 34.1756 549.635C31.1064 548.64 28.4009 546.758 26.4011 544.226C24.4013 541.694 23.1968 538.626 22.94 535.41C22.7678 533.271 23.0195 531.118 23.6807 529.077C24.3419 527.035 25.3995 525.144 26.793 523.511C28.1865 521.879 29.8884 520.538 31.8013 519.565C33.7141 518.592 35.8002 518.005 37.94 517.84Z" fill="url(#paint35_radial_2_2)"/>
<path style="mix-blend-mode:screen" d="M59.09 635.79C62.1327 634.705 65.4291 634.546 68.562 635.334C71.6948 636.123 74.5235 637.823 76.6901 640.219C78.8566 642.615 80.2637 645.6 80.7334 648.797C81.203 651.993 80.714 655.257 79.3284 658.175C77.9427 661.093 75.7226 663.535 72.9489 665.191C70.1752 666.847 66.9726 667.644 63.7462 667.48C60.5198 667.315 57.4147 666.198 54.8236 664.268C52.2326 662.339 50.272 659.684 49.19 656.64C47.7405 652.562 47.969 648.076 49.8253 644.166C51.6816 640.257 55.0138 637.244 59.09 635.79V635.79Z" fill="url(#paint36_radial_2_2)"/>
<path style="mix-blend-mode:screen" d="M110.06 744.26C112.717 742.428 115.858 741.424 119.086 741.377C122.313 741.329 125.482 742.24 128.192 743.994C130.902 745.748 133.031 748.265 134.31 751.229C135.588 754.193 135.96 757.469 135.377 760.644C134.793 763.818 133.282 766.749 131.033 769.064C128.785 771.38 125.9 772.977 122.744 773.653C119.587 774.329 116.301 774.054 113.302 772.863C110.302 771.671 107.722 769.617 105.89 766.96C103.433 763.397 102.492 759.003 103.274 754.746C104.056 750.489 106.497 746.717 110.06 744.26V744.26Z" fill="url(#paint37_radial_2_2)"/>
<path style="mix-blend-mode:screen" d="M187.36 835.83C189.453 833.372 192.227 831.59 195.333 830.709C198.439 829.828 201.736 829.888 204.807 830.881C207.879 831.874 210.587 833.756 212.589 836.288C214.591 838.821 215.797 841.89 216.054 845.108C216.312 848.326 215.609 851.548 214.035 854.366C212.461 857.185 210.087 859.473 207.212 860.942C204.338 862.411 201.092 862.994 197.886 862.618C194.68 862.242 191.657 860.924 189.2 858.83C187.568 857.441 186.226 855.744 185.251 853.836C184.275 851.929 183.685 849.847 183.514 847.711C183.343 845.575 183.595 843.427 184.255 841.388C184.915 839.349 185.97 837.461 187.36 835.83V835.83Z" fill="url(#paint38_radial_2_2)"/>
<path style="mix-blend-mode:screen" d="M285.72 904.28C287.102 901.361 289.318 898.918 292.089 897.26C294.859 895.601 298.06 894.802 301.285 894.963C304.51 895.124 307.615 896.238 310.206 898.164C312.798 900.091 314.76 902.743 315.844 905.784C316.928 908.826 317.085 912.121 316.296 915.252C315.506 918.383 313.806 921.21 311.409 923.374C309.013 925.539 306.028 926.943 302.833 927.411C299.638 927.878 296.376 927.387 293.46 926C289.56 924.139 286.556 920.809 285.105 916.738C283.655 912.668 283.876 908.188 285.72 904.28Z" fill="url(#paint39_radial_2_2)"/>
<path style="mix-blend-mode:screen" d="M398.46 944.94C399.043 941.765 400.555 938.835 402.804 936.519C405.053 934.204 407.938 932.607 411.094 931.931C414.25 931.255 417.536 931.53 420.536 932.722C423.536 933.913 426.115 935.968 427.947 938.625C429.78 941.283 430.783 944.424 430.83 947.652C430.877 950.879 429.965 954.048 428.211 956.758C426.457 959.467 423.939 961.596 420.975 962.875C418.011 964.153 414.735 964.524 411.56 963.94C407.303 963.157 403.532 960.716 401.075 957.153C398.619 953.59 397.678 949.197 398.46 944.94Z" fill="url(#paint40_radial_2_2)"/>
<path style="mix-blend-mode:screen" d="M517.87 955C517.619 951.784 518.328 948.565 519.905 945.751C521.483 942.938 523.859 940.654 526.734 939.19C529.608 937.726 532.853 937.147 536.056 937.525C539.26 937.904 542.28 939.224 544.734 941.318C547.188 943.412 548.966 946.186 549.844 949.29C550.723 952.394 550.661 955.689 549.668 958.758C548.674 961.828 546.793 964.533 544.263 966.534C541.732 968.535 538.666 969.741 535.45 970C533.31 970.172 531.157 969.921 529.115 969.26C527.073 968.598 525.181 967.541 523.548 966.148C521.915 964.754 520.573 963.052 519.598 961.139C518.624 959.227 518.037 957.14 517.87 955Z" fill="url(#paint41_radial_2_2)"/>
<path style="mix-blend-mode:screen" d="M635.83 933.88C634.749 930.839 634.594 927.546 635.385 924.416C636.176 921.287 637.877 918.463 640.272 916.3C642.668 914.138 645.651 912.734 648.845 912.267C652.038 911.799 655.299 912.29 658.213 913.675C661.128 915.061 663.567 917.279 665.221 920.051C666.875 922.822 667.671 926.021 667.507 929.245C667.342 932.468 666.226 935.57 664.299 938.159C662.372 940.748 659.721 942.708 656.68 943.79C652.601 945.239 648.113 945.009 644.204 943.151C640.294 941.293 637.282 937.958 635.83 933.88V933.88Z" fill="url(#paint42_radial_2_2)"/>
<path style="mix-blend-mode:screen" d="M744.29 882.92C742.457 880.263 741.454 877.122 741.407 873.894C741.359 870.667 742.27 867.498 744.024 864.788C745.777 862.078 748.295 859.949 751.259 858.67C754.223 857.392 757.499 857.02 760.674 857.603C763.848 858.187 766.779 859.698 769.094 861.947C771.41 864.195 773.007 867.08 773.683 870.236C774.359 873.393 774.084 876.678 772.893 879.678C771.701 882.678 769.647 885.258 766.99 887.09C763.427 889.547 759.033 890.488 754.776 889.706C750.519 888.924 746.747 886.483 744.29 882.92V882.92Z" fill="url(#paint43_radial_2_2)"/>
<path style="mix-blend-mode:screen" d="M835.87 805.62C833.411 803.528 831.628 800.754 830.746 797.649C829.864 794.544 829.922 791.247 830.914 788.175C831.906 785.103 833.787 782.394 836.318 780.391C838.85 778.388 841.918 777.181 845.136 776.922C848.354 776.663 851.576 777.364 854.395 778.937C857.214 780.51 859.504 782.883 860.974 785.757C862.444 788.631 863.029 791.876 862.654 795.083C862.28 798.289 860.963 801.312 858.87 803.77C856.063 807.062 852.065 809.106 847.753 809.453C843.44 809.8 839.167 808.421 835.87 805.62Z" fill="url(#paint44_radial_2_2)"/>
<path style="mix-blend-mode:screen" d="M904.32 707.25C901.405 705.864 898.967 703.645 897.313 700.874C895.659 698.103 894.864 694.903 895.028 691.68C895.193 688.457 896.309 685.354 898.236 682.766C900.163 680.177 902.815 678.217 905.856 677.135C908.896 676.053 912.189 675.897 915.319 676.687C918.448 677.476 921.273 679.175 923.437 681.57C925.6 683.965 927.005 686.948 927.474 690.141C927.943 693.334 927.454 696.594 926.07 699.51C925.151 701.447 923.859 703.183 922.268 704.621C920.677 706.058 918.818 707.168 916.799 707.886C914.779 708.605 912.637 708.919 910.496 708.81C908.355 708.7 906.256 708.171 904.32 707.25Z" fill="url(#paint45_radial_2_2)"/>
<path style="mix-blend-mode:screen" d="M945 594.52C941.826 593.937 938.895 592.426 936.579 590.178C934.264 587.93 932.667 585.045 931.99 581.889C931.313 578.734 931.588 575.448 932.778 572.448C933.969 569.448 936.022 566.869 938.679 565.036C941.335 563.203 944.476 562.198 947.703 562.15C950.93 562.102 954.099 563.011 956.809 564.764C959.52 566.517 961.649 569.034 962.929 571.997C964.209 574.959 964.582 578.235 964 581.41C963.217 585.667 960.776 589.439 957.214 591.898C953.651 594.356 949.258 595.299 945 594.52Z" fill="url(#paint46_radial_2_2)"/>
<path style="mix-blend-mode:screen" d="M955.07 475.1C951.853 475.351 948.634 474.642 945.82 473.064C943.006 471.486 940.723 469.11 939.259 466.234C937.795 463.359 937.216 460.115 937.595 456.911C937.974 453.706 939.295 450.687 941.39 448.233C943.485 445.779 946.26 444.001 949.365 443.124C952.47 442.247 955.765 442.31 958.834 443.305C961.904 444.3 964.609 446.182 966.609 448.714C968.609 451.246 969.813 454.314 970.07 457.53C970.242 459.669 969.99 461.821 969.329 463.863C968.668 465.905 967.61 467.796 966.217 469.428C964.823 471.061 963.121 472.402 961.209 473.375C959.296 474.348 957.21 474.935 955.07 475.1Z" fill="url(#paint47_radial_2_2)"/>
<path style="mix-blend-mode:screen" d="M933.92 357.15C930.877 358.235 927.581 358.394 924.448 357.606C921.315 356.817 918.487 355.117 916.32 352.721C914.153 350.325 912.746 347.34 912.277 344.143C911.807 340.947 912.296 337.683 913.682 334.765C915.067 331.847 917.287 329.405 920.061 327.749C922.835 326.093 926.037 325.296 929.264 325.461C932.49 325.625 935.595 326.742 938.186 328.672C940.777 330.601 942.738 333.256 943.82 336.3C945.27 340.378 945.041 344.864 943.185 348.774C941.328 352.683 937.996 355.696 933.92 357.15V357.15Z" fill="url(#paint48_radial_2_2)"/>
<path style="mix-blend-mode:screen" d="M883 248.68C880.343 250.512 877.202 251.516 873.974 251.563C870.747 251.611 867.578 250.7 864.868 248.946C862.158 247.192 860.029 244.675 858.75 241.711C857.472 238.747 857.1 235.471 857.683 232.296C858.267 229.122 859.778 226.191 862.027 223.876C864.275 221.56 867.16 219.963 870.317 219.287C873.473 218.611 876.759 218.886 879.758 220.077C882.758 221.269 885.338 223.323 887.17 225.98C889.627 229.543 890.568 233.937 889.786 238.194C889.004 242.451 886.563 246.223 883 248.68V248.68Z" fill="url(#paint49_radial_2_2)"/>
<path style="mix-blend-mode:screen" d="M805.65 157.11C803.557 159.568 800.783 161.35 797.677 162.231C794.571 163.112 791.274 163.052 788.203 162.059C785.131 161.066 782.423 159.184 780.421 156.652C778.419 154.119 777.213 151.05 776.955 147.832C776.698 144.614 777.401 141.392 778.975 138.574C780.549 135.755 782.923 133.467 785.798 131.998C788.672 130.529 791.918 129.946 795.124 130.322C798.33 130.698 801.353 132.016 803.81 134.11C805.442 135.499 806.784 137.196 807.759 139.104C808.735 141.011 809.325 143.093 809.496 145.229C809.667 147.365 809.415 149.513 808.755 151.552C808.095 153.591 807.04 155.479 805.65 157.11V157.11Z" fill="url(#paint50_radial_2_2)"/>
</g>
<defs>
<linearGradient id="paint0_linear_2_2" x1="407.714" y1="17.8199" x2="585.235" y2="975.078" gradientUnits="userSpaceOnUse">
<stop stop-color="#5C3C18"/>
<stop offset="0.11" stop-color="#6A461E"/>
<stop offset="0.31" stop-color="#8F612C"/>
<stop offset="0.59" stop-color="#CB8C44"/>
<stop offset="0.81" stop-color="#E4BF87"/>
<stop offset="1" stop-color="#FAEDC3"/>
</linearGradient>
<linearGradient id="paint1_linear_2_2" x1="405.445" y1="5.53796" x2="587.509" y2="987.351" gradientUnits="userSpaceOnUse">
<stop stop-color="#FAEDE1"/>
<stop offset="0.23" stop-color="#DFB688"/>
<stop offset="0.41" stop-color="#CB8C44"/>
<stop offset="0.62" stop-color="#A67134"/>
<stop offset="0.87" stop-color="#815524"/>
<stop offset="1" stop-color="#734B1E"/>
</linearGradient>
<linearGradient id="paint2_linear_2_2" x1="406.811" y1="12.9401" x2="586.139" y2="979.957" gradientUnits="userSpaceOnUse">
<stop stop-color="#FFC76E"/>
<stop offset="0.01" stop-color="#FDC46C"/>
<stop offset="0.02" stop-color="#F6BB66"/>
<stop offset="0.03" stop-color="#DA954F"/>
<stop offset="0.04" stop-color="#C2733A"/>
<stop offset="0.08" stop-color="#C3753B"/>
<stop offset="0.09" stop-color="#C97C3E"/>
<stop offset="0.1" stop-color="#D28843"/>
<stop offset="0.11" stop-color="#DF9A4B"/>
<stop offset="0.12" stop-color="#F7BA59"/>
<stop offset="0.14" stop-color="#F6B858"/>
<stop offset="0.15" stop-color="#DE9A4C"/>
<stop offset="0.16" stop-color="#B3763A"/>
<stop offset="0.17" stop-color="#965E2D"/>
<stop offset="0.24" stop-color="#965F2B"/>
<stop offset="0.26" stop-color="#966227"/>
<stop offset="0.27" stop-color="#D38E46"/>
<stop offset="0.28" stop-color="#EFA355"/>
<stop offset="0.29" stop-color="#F6A858"/>
<stop offset="0.31" stop-color="#F8A959"/>
<stop offset="0.44" stop-color="#F6A758"/>
<stop offset="0.49" stop-color="#EFA255"/>
<stop offset="0.53" stop-color="#E4984F"/>
<stop offset="0.55" stop-color="#D38A47"/>
<stop offset="0.58" stop-color="#BD783D"/>
<stop offset="0.63" stop-color="#98602D"/>
<stop offset="0.67" stop-color="#9A612D"/>
<stop offset="0.68" stop-color="#A1652F"/>
<stop offset="0.69" stop-color="#AC6C32"/>
<stop offset="0.7" stop-color="#BD7637"/>
<stop offset="0.71" stop-color="#D6853D"/>
<stop offset="0.83" stop-color="#885521"/>
<stop offset="0.84" stop-color="#8F5A24"/>
<stop offset="0.85" stop-color="#915B25"/>
<stop offset="0.89" stop-color="#935D26"/>
<stop offset="0.91" stop-color="#9D652A"/>
<stop offset="0.92" stop-color="#BF803D"/>
<stop offset="0.93" stop-color="#D59249"/>
<stop offset="0.94" stop-color="#E6A053"/>
<stop offset="0.95" stop-color="#F1AA59"/>
<stop offset="0.96" stop-color="#F8AF5D"/>
<stop offset="1" stop-color="#FAB15E"/>
</linearGradient>
<radialGradient id="paint3_radial_2_2" cx="0" cy="0" r="1" gradientUnits="userSpaceOnUse" gradientTransform="translate(702.868 71.8623) rotate(25.5374) scale(32.3173 22.1761)">
<stop stop-color="#FFDD99"/>
<stop offset="0.21" stop-color="#E1C089"/>
<stop offset="0.4" stop-color="#9C855F"/>
<stop offset="0.61" stop-color="#5A4D37"/>
<stop offset="0.79" stop-color="#292319"/>
<stop offset="0.92" stop-color="#0B0A07"/>
<stop offset="1"/>
</radialGradient>
<radialGradient id="paint4_radial_2_2" cx="0" cy="0" r="1" gradientUnits="userSpaceOnUse" gradientTransform="translate(692.588 81.641) rotate(25.41) scale(16.32 16.32)">
<stop stop-color="#FFDD99"/>
<stop offset="0.21" stop-color="#E1C089"/>
<stop offset="0.4" stop-color="#9C855F"/>
<stop offset="0.61" stop-color="#5A4D37"/>
<stop offset="0.79" stop-color="#292319"/>
<stop offset="0.92" stop-color="#0B0A07"/>
<stop offset="1"/>
</radialGradient>
<radialGradient id="paint5_radial_2_2" cx="0" cy="0" r="1" gradientUnits="userSpaceOnUse" gradientTransform="translate(583.505 33.6028) rotate(25.5374) scale(32.3173 23.7645)">
<stop stop-color="#FFDD99"/>
<stop offset="0.21" stop-color="#E1C089"/>
<stop offset="0.4" stop-color="#9C855F"/>
<stop offset="0.61" stop-color="#5A4D37"/>
<stop offset="0.79" stop-color="#292319"/>
<stop offset="0.92" stop-color="#0B0A07"/>
<stop offset="1"/>
</radialGradient>
<radialGradient id="paint6_radial_2_2" cx="0" cy="0" r="1" gradientUnits="userSpaceOnUse" gradientTransform="translate(453.318 39.5292) rotate(25.0963) scale(22.6376 20.4274)">
<stop stop-color="#FFDD99"/>
<stop offset="0.21" stop-color="#E1C089"/>
<stop offset="0.4" stop-color="#9C855F"/>
<stop offset="0.61" stop-color="#5A4D37"/>
<stop offset="0.79" stop-color="#292319"/>
<stop offset="0.92" stop-color="#0B0A07"/>
<stop offset="1"/>
</radialGradient>
<radialGradient id="paint7_radial_2_2" cx="0" cy="0" r="1" gradientUnits="userSpaceOnUse" gradientTransform="translate(343.211 54.5552) rotate(25.641) scale(19.5835 19.7957)">
<stop stop-color="#FFDD99"/>
<stop offset="0.21" stop-color="#E1C089"/>
<stop offset="0.4" stop-color="#9C855F"/>
<stop offset="0.61" stop-color="#5A4D37"/>
<stop offset="0.79" stop-color="#292319"/>
<stop offset="0.92" stop-color="#0B0A07"/>
<stop offset="1"/>
</radialGradient>
<radialGradient id="paint8_radial_2_2" cx="0" cy="0" r="1" gradientUnits="userSpaceOnUse" gradientTransform="translate(228.812 105.901) rotate(25.821) scale(22.316 32.3169)">
<stop stop-color="#FFDD99"/>
<stop offset="0.21" stop-color="#E1C089"/>
<stop offset="0.4" stop-color="#9C855F"/>
<stop offset="0.61" stop-color="#5A4D37"/>
<stop offset="0.79" stop-color="#292319"/>
<stop offset="0.92" stop-color="#0B0A07"/>
<stop offset="1"/>
</radialGradient>
<radialGradient id="paint9_radial_2_2" cx="0" cy="0" r="1" gradientUnits="userSpaceOnUse" gradientTransform="translate(138.935 187.88) rotate(25.641) scale(18.71 22.4325)">
<stop stop-color="#FFDD99"/>
<stop offset="0.21" stop-color="#E1C089"/>
<stop offset="0.4" stop-color="#9C855F"/>
<stop offset="0.61" stop-color="#5A4D37"/>
<stop offset="0.79" stop-color="#292319"/>
<stop offset="0.92" stop-color="#0B0A07"/>
<stop offset="1"/>
</radialGradient>
<radialGradient id="paint10_radial_2_2" cx="0" cy="0" r="1" gradientUnits="userSpaceOnUse" gradientTransform="translate(78.2076 285.938) rotate(25.8664) scale(23.7649 32.3167)">
<stop stop-color="#FFDD99"/>
<stop offset="0.21" stop-color="#E1C089"/>
<stop offset="0.4" stop-color="#9C855F"/>
<stop offset="0.61" stop-color="#5A4D37"/>
<stop offset="0.79" stop-color="#292319"/>
<stop offset="0.92" stop-color="#0B0A07"/>
<stop offset="1"/>
</radialGradient>
<radialGradient id="paint11_radial_2_2" cx="0" cy="0" r="1" gradientUnits="userSpaceOnUse" gradientTransform="translate(41.1497 404.431) rotate(25.6155) scale(19.3972 23.8988)">
<stop stop-color="#FFDD99"/>
<stop offset="0.04" stop-color="#F9D692"/>
<stop offset="0.09" stop-color="#E7C380"/>
<stop offset="0.15" stop-color="#CAA462"/>
<stop offset="0.21" stop-color="#A67E3C"/>
<stop offset="0.24" stop-color="#9C7638"/>
<stop offset="0.51" stop-color="#5A4420"/>
<stop offset="0.73" stop-color="#291F0F"/>
<stop offset="0.9" stop-color="#0B0804"/>
<stop offset="1"/>
</radialGradient>
<radialGradient id="paint12_radial_2_2" cx="0" cy="0" r="1" gradientUnits="userSpaceOnUse" gradientTransform="translate(29.8059 530.737) rotate(25.641) scale(19.3339 22.1414)">
<stop stop-color="#FFCD69"/>
<stop offset="0.21" stop-color="#A8782A"/>
<stop offset="0.25" stop-color="#9C6F27"/>
<stop offset="0.52" stop-color="#5A4016"/>
<stop offset="0.74" stop-color="#291D0A"/>
<stop offset="0.9" stop-color="#0B0803"/>
<stop offset="1"/>
</radialGradient>
<radialGradient id="paint13_radial_2_2" cx="0" cy="0" r="1" gradientUnits="userSpaceOnUse" gradientTransform="translate(63.745 651.788) rotate(25.6155) scale(21.6802 23.1192)">
<stop stop-color="#FFDD99"/>
<stop offset="0.21" stop-color="#E1C089"/>
<stop offset="0.4" stop-color="#9C855F"/>
<stop offset="0.61" stop-color="#5A4D37"/>
<stop offset="0.79" stop-color="#292319"/>
<stop offset="0.92" stop-color="#0B0A07"/>
<stop offset="1"/>
</radialGradient>
<radialGradient id="paint14_radial_2_2" cx="0" cy="0" r="1" gradientUnits="userSpaceOnUse" gradientTransform="translate(109.639 755.165) rotate(25.5297) scale(24.0569 24.7813)">
<stop stop-color="#FFDD99"/>
<stop offset="0.21" stop-color="#E1C089"/>
<stop offset="0.4" stop-color="#9C855F"/>
<stop offset="0.61" stop-color="#5A4D37"/>
<stop offset="0.79" stop-color="#292319"/>
<stop offset="0.92" stop-color="#0B0A07"/>
<stop offset="1"/>
</radialGradient>
<radialGradient id="paint15_radial_2_2" cx="0" cy="0" r="1" gradientUnits="userSpaceOnUse" gradientTransform="translate(201.503 847.707) rotate(25.5374) scale(32.3173 22.6081)">
<stop stop-color="#FFDD99"/>
<stop offset="0.21" stop-color="#E1C089"/>
<stop offset="0.4" stop-color="#9C855F"/>
<stop offset="0.61" stop-color="#5A4D37"/>
<stop offset="0.79" stop-color="#292319"/>
<stop offset="0.92" stop-color="#0B0A07"/>
<stop offset="1"/>
</radialGradient>
<radialGradient id="paint16_radial_2_2" cx="0" cy="0" r="1" gradientUnits="userSpaceOnUse" gradientTransform="translate(295.223 923.359) rotate(25.5374) scale(32.3173 24.0569)">
<stop stop-color="#FFDD99"/>
<stop offset="0.21" stop-color="#E1C089"/>
<stop offset="0.4" stop-color="#9C855F"/>
<stop offset="0.61" stop-color="#5A4D37"/>
<stop offset="0.79" stop-color="#292319"/>
<stop offset="0.92" stop-color="#0B0A07"/>
<stop offset="1"/>
</radialGradient>
<radialGradient id="paint17_radial_2_2" cx="0" cy="0" r="1" gradientUnits="userSpaceOnUse" gradientTransform="translate(409.911 963.115) rotate(25.133) scale(28.9885 24.0563)">
<stop stop-color="#FFDD99"/>
<stop offset="0.21" stop-color="#E1C089"/>
<stop offset="0.4" stop-color="#9C855F"/>
<stop offset="0.61" stop-color="#5A4D37"/>
<stop offset="0.79" stop-color="#292319"/>
<stop offset="0.92" stop-color="#0B0A07"/>
<stop offset="1"/>
</radialGradient>
<radialGradient id="paint18_radial_2_2" cx="0" cy="0" r="1" gradientUnits="userSpaceOnUse" gradientTransform="translate(534.523 968.004) rotate(25.6155) scale(26.23 24.7812)">
<stop stop-color="#FFDD99"/>
<stop offset="0.21" stop-color="#E1C089"/>
<stop offset="0.4" stop-color="#9C855F"/>
<stop offset="0.61" stop-color="#5A4D37"/>
<stop offset="0.79" stop-color="#292319"/>
<stop offset="0.92" stop-color="#0B0A07"/>
<stop offset="1"/>
</radialGradient>
<radialGradient id="paint19_radial_2_2" cx="0" cy="0" r="1" gradientUnits="userSpaceOnUse" gradientTransform="translate(651.646 942.289) rotate(25.5885) scale(25.4977 25.4977)">
<stop stop-color="#FFDD99"/>
<stop offset="0.21" stop-color="#E1C089"/>
<stop offset="0.4" stop-color="#9C855F"/>
<stop offset="0.61" stop-color="#5A4D37"/>
<stop offset="0.79" stop-color="#292319"/>
<stop offset="0.92" stop-color="#0B0A07"/>
<stop offset="1"/>
</radialGradient>
<radialGradient id="paint20_radial_2_2" cx="0" cy="0" r="1" gradientUnits="userSpaceOnUse" gradientTransform="translate(766.885 886.828) rotate(25.2405) scale(25.0739 25.0739)">
<stop stop-color="#FFDD99"/>
<stop offset="0.21" stop-color="#E1C089"/>
<stop offset="0.4" stop-color="#9C855F"/>
<stop offset="0.61" stop-color="#5A4D37"/>
<stop offset="0.79" stop-color="#292319"/>
<stop offset="0.92" stop-color="#0B0A07"/>
<stop offset="1"/>
</radialGradient>
<radialGradient id="paint21_radial_2_2" cx="0" cy="0" r="1" gradientUnits="userSpaceOnUse" gradientTransform="translate(853.152 795.256) rotate(25.1593) scale(23.6254 32.3166)">
<stop stop-color="#FFDD99"/>
<stop offset="0.21" stop-color="#E1C089"/>
<stop offset="0.4" stop-color="#9C855F"/>
<stop offset="0.61" stop-color="#5A4D37"/>
<stop offset="0.79" stop-color="#292319"/>
<stop offset="0.92" stop-color="#0B0A07"/>
<stop offset="1"/>
</radialGradient>
<radialGradient id="paint22_radial_2_2" cx="0" cy="0" r="1" gradientUnits="userSpaceOnUse" gradientTransform="translate(919.127 692.206) rotate(25.5297) scale(24.0569 32.3173)">
<stop stop-color="#FFDD99"/>
<stop offset="0.21" stop-color="#E1C089"/>
<stop offset="0.4" stop-color="#9C855F"/>
<stop offset="0.61" stop-color="#5A4D37"/>
<stop offset="0.79" stop-color="#292319"/>
<stop offset="0.92" stop-color="#0B0A07"/>
<stop offset="1"/>
</radialGradient>
<radialGradient id="paint23_radial_2_2" cx="0" cy="0" r="1" gradientUnits="userSpaceOnUse" gradientTransform="translate(953.907 577.918) rotate(25.4975) scale(23.3325 32.3173)">
<stop stop-color="#FFDD99"/>
<stop offset="0.21" stop-color="#E1C089"/>
<stop offset="0.4" stop-color="#9C855F"/>
<stop offset="0.61" stop-color="#5A4D37"/>
<stop offset="0.79" stop-color="#292319"/>
<stop offset="0.92" stop-color="#0B0A07"/>
<stop offset="1"/>
</radialGradient>
<radialGradient id="paint24_radial_2_2" cx="0" cy="0" r="1" gradientUnits="userSpaceOnUse" gradientTransform="translate(969.102 459.997) rotate(25.5297) scale(24.0569 28.2634)">
<stop stop-color="#FFDD99"/>
<stop offset="0.21" stop-color="#E1C089"/>
<stop offset="0.4" stop-color="#9C855F"/>
<stop offset="0.61" stop-color="#5A4D37"/>
<stop offset="0.79" stop-color="#292319"/>
<stop offset="0.92" stop-color="#0B0A07"/>
<stop offset="1"/>
</radialGradient>
<radialGradient id="paint25_radial_2_2" cx="0" cy="0" r="1" gradientUnits="userSpaceOnUse" gradientTransform="translate(940.343 337.724) rotate(25.2405) scale(25.0662 25.7903)">
<stop stop-color="#FFDD99"/>
<stop offset="0.21" stop-color="#E1C089"/>
<stop offset="0.4" stop-color="#9C855F"/>
<stop offset="0.61" stop-color="#5A4D37"/>
<stop offset="0.79" stop-color="#292319"/>
<stop offset="0.92" stop-color="#0B0A07"/>
<stop offset="1"/>
</radialGradient>
<radialGradient id="paint26_radial_2_2" cx="0" cy="0" r="1" gradientUnits="userSpaceOnUse" gradientTransform="translate(884.557 231.306) rotate(25.5885) scale(25.5056 24.3491)">
<stop stop-color="#FFDD99"/>
<stop offset="0.21" stop-color="#E1C089"/>
<stop offset="0.4" stop-color="#9C855F"/>
<stop offset="0.61" stop-color="#5A4D37"/>
<stop offset="0.79" stop-color="#292319"/>
<stop offset="0.92" stop-color="#0B0A07"/>
<stop offset="1"/>
</radialGradient>
<radialGradient id="paint27_radial_2_2" cx="0" cy="0" r="1" gradientUnits="userSpaceOnUse" gradientTransform="translate(798.169 134.428) rotate(25.5374) scale(32.3173 23.0401)">
<stop stop-color="#FFDD99"/>
<stop offset="0.21" stop-color="#E1C089"/>
<stop offset="0.4" stop-color="#9C855F"/>
<stop offset="0.61" stop-color="#5A4D37"/>
<stop offset="0.79" stop-color="#292319"/>
<stop offset="0.92" stop-color="#0B0A07"/>
<stop offset="1"/>
</radialGradient>
<radialGradient id="paint28_radial_2_2" cx="0" cy="0" r="1" gradientUnits="userSpaceOnUse" gradientTransform="translate(578.552 45.0382) rotate(25.41) scale(16.32 16.32)">
<stop stop-color="#FFDD99"/>
<stop offset="0.21" stop-color="#E1C089"/>
<stop offset="0.4" stop-color="#9C855F"/>
<stop offset="0.61" stop-color="#5A4D37"/>
<stop offset="0.79" stop-color="#292319"/>
<stop offset="0.92" stop-color="#0B0A07"/>
<stop offset="1"/>
</radialGradient>
<radialGradient id="paint29_radial_2_2" cx="0" cy="0" r="1" gradientUnits="userSpaceOnUse" gradientTransform="translate(458.928 39.1928) rotate(25.41) scale(16.32 16.32)">
<stop stop-color="#FFDD99"/>
<stop offset="0.21" stop-color="#E1C089"/>
<stop offset="0.4" stop-color="#9C855F"/>
<stop offset="0.61" stop-color="#5A4D37"/>
<stop offset="0.79" stop-color="#292319"/>
<stop offset="0.92" stop-color="#0B0A07"/>
<stop offset="1"/>
</radialGradient>
<radialGradient id="paint30_radial_2_2" cx="0" cy="0" r="1" gradientUnits="userSpaceOnUse" gradientTransform="translate(341.869 64.5131) rotate(25.41) scale(16.32 16.32)">
<stop stop-color="#FFDD99"/>
<stop offset="0.21" stop-color="#E1C089"/>
<stop offset="0.4" stop-color="#9C855F"/>
<stop offset="0.61" stop-color="#5A4D37"/>
<stop offset="0.79" stop-color="#292319"/>
<stop offset="0.92" stop-color="#0B0A07"/>
<stop offset="1"/>
</radialGradient>
<radialGradient id="paint31_radial_2_2" cx="0" cy="0" r="1" gradientUnits="userSpaceOnUse" gradientTransform="translate(235.347 119.273) rotate(25.41) scale(16.32)">
<stop stop-color="#FFDD99"/>
<stop offset="0.21" stop-color="#E1C089"/>
<stop offset="0.4" stop-color="#9C855F"/>
<stop offset="0.61" stop-color="#5A4D37"/>
<stop offset="0.79" stop-color="#292319"/>
<stop offset="0.92" stop-color="#0B0A07"/>
<stop offset="1"/>
</radialGradient>
<radialGradient id="paint32_radial_2_2" cx="0" cy="0" r="1" gradientUnits="userSpaceOnUse" gradientTransform="translate(146.632 199.729) rotate(25.41) scale(11.7 11.7)">
<stop stop-color="#FFDD99"/>
<stop offset="0.21" stop-color="#E1C089"/>
<stop offset="0.4" stop-color="#9C855F"/>
<stop offset="0.61" stop-color="#5A4D37"/>
<stop offset="0.79" stop-color="#292319"/>
<stop offset="0.92" stop-color="#0B0A07"/>
<stop offset="1"/>
</radialGradient>
<radialGradient id="paint33_radial_2_2" cx="0" cy="0" r="1" gradientUnits="userSpaceOnUse" gradientTransform="translate(81.758 300.401) rotate(25.41) scale(16.32)">
<stop stop-color="#FFDD99"/>
<stop offset="0.21" stop-color="#E1C089"/>
<stop offset="0.4" stop-color="#9C855F"/>
<stop offset="0.61" stop-color="#5A4D37"/>
<stop offset="0.79" stop-color="#292319"/>
<stop offset="0.92" stop-color="#0B0A07"/>
<stop offset="1"/>
</radialGradient>
<radialGradient id="paint34_radial_2_2" cx="0" cy="0" r="1" gradientUnits="userSpaceOnUse" gradientTransform="translate(45.1508 414.446) rotate(25.41) scale(12.6 12.6)">
<stop stop-color="#FFDD99"/>
<stop offset="0.21" stop-color="#E1C089"/>
<stop offset="0.4" stop-color="#9C855F"/>
<stop offset="0.61" stop-color="#5A4D37"/>
<stop offset="0.79" stop-color="#292319"/>
<stop offset="0.92" stop-color="#0B0A07"/>
<stop offset="1"/>
</radialGradient>
<radialGradient id="paint35_radial_2_2" cx="0" cy="0" r="1" gradientUnits="userSpaceOnUse" gradientTransform="translate(39.3188 534.065) rotate(25.41) scale(16.32 16.32)">
<stop stop-color="#FFDD99"/>
<stop offset="0.21" stop-color="#E1C089"/>
<stop offset="0.4" stop-color="#9C855F"/>
<stop offset="0.61" stop-color="#5A4D37"/>
<stop offset="0.79" stop-color="#292319"/>
<stop offset="0.92" stop-color="#0B0A07"/>
<stop offset="1"/>
</radialGradient>
<radialGradient id="paint36_radial_2_2" cx="0" cy="0" r="1" gradientUnits="userSpaceOnUse" gradientTransform="translate(64.6348 651.133) rotate(25.41) scale(16.32 16.32)">
<stop stop-color="#FFDD99"/>
<stop offset="0.21" stop-color="#E1C089"/>
<stop offset="0.4" stop-color="#9C855F"/>
<stop offset="0.61" stop-color="#5A4D37"/>
<stop offset="0.79" stop-color="#292319"/>
<stop offset="0.92" stop-color="#0B0A07"/>
<stop offset="1"/>
</radialGradient>
<radialGradient id="paint37_radial_2_2" cx="0" cy="0" r="1" gradientUnits="userSpaceOnUse" gradientTransform="translate(119.385 757.651) rotate(25.41) scale(16.32 16.32)">
<stop stop-color="#FFDD99"/>
<stop offset="0.21" stop-color="#E1C089"/>
<stop offset="0.4" stop-color="#9C855F"/>
<stop offset="0.61" stop-color="#5A4D37"/>
<stop offset="0.79" stop-color="#292319"/>
<stop offset="0.92" stop-color="#0B0A07"/>
<stop offset="1"/>
</radialGradient>
<radialGradient id="paint38_radial_2_2" cx="0" cy="0" r="1" gradientUnits="userSpaceOnUse" gradientTransform="translate(199.842 846.366) rotate(25.41) scale(16.32)">
<stop stop-color="#FFDD99"/>
<stop offset="0.21" stop-color="#E1C089"/>
<stop offset="0.4" stop-color="#9C855F"/>
<stop offset="0.61" stop-color="#5A4D37"/>
<stop offset="0.79" stop-color="#292319"/>
<stop offset="0.92" stop-color="#0B0A07"/>
<stop offset="1"/>
</radialGradient>
<radialGradient id="paint39_radial_2_2" cx="0" cy="0" r="1" gradientUnits="userSpaceOnUse" gradientTransform="translate(300.527 911.235) rotate(25.41) scale(16.32)">
<stop stop-color="#FFDD99"/>
<stop offset="0.21" stop-color="#E1C089"/>
<stop offset="0.4" stop-color="#9C855F"/>
<stop offset="0.61" stop-color="#5A4D37"/>
<stop offset="0.79" stop-color="#292319"/>
<stop offset="0.92" stop-color="#0B0A07"/>
<stop offset="1"/>
</radialGradient>
<radialGradient id="paint40_radial_2_2" cx="0" cy="0" r="1" gradientUnits="userSpaceOnUse" gradientTransform="translate(414.563 947.838) rotate(25.41) scale(16.32 16.32)">
<stop stop-color="#FFDD99"/>
<stop offset="0.21" stop-color="#E1C089"/>
<stop offset="0.4" stop-color="#9C855F"/>
<stop offset="0.61" stop-color="#5A4D37"/>
<stop offset="0.79" stop-color="#292319"/>
<stop offset="0.92" stop-color="#0B0A07"/>
<stop offset="1"/>
</radialGradient>
<radialGradient id="paint41_radial_2_2" cx="0" cy="0" r="1" gradientUnits="userSpaceOnUse" gradientTransform="translate(534.187 953.683) rotate(25.41) scale(16.32 16.32)">
<stop stop-color="#FFDD99"/>
<stop offset="0.21" stop-color="#E1C089"/>
<stop offset="0.4" stop-color="#9C855F"/>
<stop offset="0.61" stop-color="#5A4D37"/>
<stop offset="0.79" stop-color="#292319"/>
<stop offset="0.92" stop-color="#0B0A07"/>
<stop offset="1"/>
</radialGradient>
<radialGradient id="paint42_radial_2_2" cx="0" cy="0" r="1" gradientUnits="userSpaceOnUse" gradientTransform="translate(651.246 928.363) rotate(25.41) scale(16.32 16.32)">
<stop stop-color="#FFDD99"/>
<stop offset="0.21" stop-color="#E1C089"/>
<stop offset="0.4" stop-color="#9C855F"/>
<stop offset="0.61" stop-color="#5A4D37"/>
<stop offset="0.79" stop-color="#292319"/>
<stop offset="0.92" stop-color="#0B0A07"/>
<stop offset="1"/>
</radialGradient>
<radialGradient id="paint43_radial_2_2" cx="0" cy="0" r="1" gradientUnits="userSpaceOnUse" gradientTransform="translate(757.764 873.612) rotate(25.41) scale(16.32 16.32)">
<stop stop-color="#FFDD99"/>
<stop offset="0.21" stop-color="#E1C089"/>
<stop offset="0.4" stop-color="#9C855F"/>
<stop offset="0.61" stop-color="#5A4D37"/>
<stop offset="0.79" stop-color="#292319"/>
<stop offset="0.92" stop-color="#0B0A07"/>
<stop offset="1"/>
</radialGradient>
<radialGradient id="paint44_radial_2_2" cx="0" cy="0" r="1" gradientUnits="userSpaceOnUse" gradientTransform="translate(846.483 793.147) rotate(25.41) scale(16.32)">
<stop stop-color="#FFDD99"/>
<stop offset="0.21" stop-color="#E1C089"/>
<stop offset="0.4" stop-color="#9C855F"/>
<stop offset="0.61" stop-color="#5A4D37"/>
<stop offset="0.79" stop-color="#292319"/>
<stop offset="0.92" stop-color="#0B0A07"/>
<stop offset="1"/>
</radialGradient>
<radialGradient id="paint45_radial_2_2" cx="0" cy="0" r="1" gradientUnits="userSpaceOnUse" gradientTransform="translate(911.357 692.475) rotate(25.41) scale(16.32 16.32)">
<stop stop-color="#FFDD99"/>
<stop offset="0.21" stop-color="#E1C089"/>
<stop offset="0.4" stop-color="#9C855F"/>
<stop offset="0.61" stop-color="#5A4D37"/>
<stop offset="0.79" stop-color="#292319"/>
<stop offset="0.92" stop-color="#0B0A07"/>
<stop offset="1"/>
</radialGradient>
<radialGradient id="paint46_radial_2_2" cx="0" cy="0" r="1" gradientUnits="userSpaceOnUse" gradientTransform="translate(947.96 578.439) rotate(25.41) scale(16.32 16.32)">
<stop stop-color="#FFDD99"/>
<stop offset="0.21" stop-color="#E1C089"/>
<stop offset="0.4" stop-color="#9C855F"/>
<stop offset="0.61" stop-color="#5A4D37"/>
<stop offset="0.79" stop-color="#292319"/>
<stop offset="0.92" stop-color="#0B0A07"/>
<stop offset="1"/>
</radialGradient>
<radialGradient id="paint47_radial_2_2" cx="0" cy="0" r="1" gradientUnits="userSpaceOnUse" gradientTransform="translate(953.796 458.811) rotate(25.41) scale(16.32 16.32)">
<stop stop-color="#FFDD99"/>
<stop offset="0.21" stop-color="#E1C089"/>
<stop offset="0.4" stop-color="#9C855F"/>
<stop offset="0.61" stop-color="#5A4D37"/>
<stop offset="0.79" stop-color="#292319"/>
<stop offset="0.92" stop-color="#0B0A07"/>
<stop offset="1"/>
</radialGradient>
<radialGradient id="paint48_radial_2_2" cx="0" cy="0" r="1" gradientUnits="userSpaceOnUse" gradientTransform="translate(928.489 341.747) rotate(25.41) scale(16.32 16.32)">
<stop stop-color="#FFDD99"/>
<stop offset="0.21" stop-color="#E1C089"/>
<stop offset="0.4" stop-color="#9C855F"/>
<stop offset="0.61" stop-color="#5A4D37"/>
<stop offset="0.79" stop-color="#292319"/>
<stop offset="0.92" stop-color="#0B0A07"/>
<stop offset="1"/>
</radialGradient>
<radialGradient id="paint49_radial_2_2" cx="0" cy="0" r="1" gradientUnits="userSpaceOnUse" gradientTransform="translate(873.729 235.225) rotate(25.41) scale(16.32 16.32)">
<stop stop-color="#FFDD99"/>
<stop offset="0.21" stop-color="#E1C089"/>
<stop offset="0.4" stop-color="#9C855F"/>
<stop offset="0.61" stop-color="#5A4D37"/>
<stop offset="0.79" stop-color="#292319"/>
<stop offset="0.92" stop-color="#0B0A07"/>
<stop offset="1"/>
</radialGradient>
<radialGradient id="paint50_radial_2_2" cx="0" cy="0" r="1" gradientUnits="userSpaceOnUse" gradientTransform="translate(793.273 146.51) rotate(25.41) scale(16.32 16.32)">
<stop stop-color="#FFDD99"/>
<stop offset="0.21" stop-color="#E1C089"/>
<stop offset="0.4" stop-color="#9C855F"/>
<stop offset="0.61" stop-color="#5A4D37"/>
<stop offset="0.79" stop-color="#292319"/>
<stop offset="0.92" stop-color="#0B0A07"/>
<stop offset="1"/>
</radialGradient>
<clipPath id="clip0_2_2">
<rect width="992.82" height="992.82" fill="white"/>
</clipPath>
</defs>
</svg>
